<svg width="574" height="69" viewBox="0 0 574 69" fill="none" xmlns="http://www.w3.org/2000/svg">
<g clip-path="url(#clip0_112_732)">
<path opacity="0.5" d="M12.2552 26.4206L12.2552 40.1889L30.5617 41.5355L30.5617 25.019L12.2552 26.4206ZM30.5371 22.9854L48.1172 23.1228L47.873 43.2393L30.5617 43.0745L30.5371 22.9854Z" stroke="#B7B7B7" stroke-width="2"/>
<path opacity="0.5" d="M17.0742 27.2191L17.0742 25.2129L15.01 25.2129L15.01 27.2191L17.0742 27.2191Z" fill="black"/>
<path opacity="0.5" d="M49.0273 24.0325L49.0273 22.0264L46.9631 22.0264L46.9631 24.0325L49.0273 24.0325Z" fill="black"/>
<path opacity="0.5" d="M17.0742 41.4554L17.0742 39.4492L15.01 39.4492L15.01 41.4554L17.0742 41.4554Z" fill="black"/>
<path opacity="0.5" d="M49.0273 44.2562L49.0273 42.25L46.9631 42.25L46.9631 44.2562L49.0273 44.2562Z" fill="black"/>
<path opacity="0.5" d="M52.4654 14.3018L55.9883 14.3018L55.9883 15.456L52.9883 15.456C52.989 15.5248 52.9903 15.5231 52.9883 15.7033C48.8717 18.7513 46.5637 20.4327 42.4471 23.4806L42.4471 43.13L52.7406 50.9348L51.5296 50.605L41.704 43.4873L41.704 22.931L51.5571 15.8682L52.9883 15.7033L51.3645 15.8682C36.1077 16.711 5.18695 18.501 3.44752 18.369C1.70808 18.2371 1.53029 19.0103 1.65855 19.4134C1.61286 27.722 1.56497 44.8119 1.74111 46.7027C1.91726 48.5934 2.43854 48.4248 2.67689 48.1042L50.5113 50.3302L52.7406 50.9898L53.3736 51.1272L53.4287 15.5659L54.1443 15.5659L54.1443 51.2646L55.9883 51.2646L55.9883 52.3089C55.5296 52.2631 54.4911 52.199 54.0067 52.3089C53.5223 52.4188 51.4746 51.6585 50.5113 51.2646C35.5481 50.4493 5.18695 48.8627 3.44752 49.0386C1.70809 49.2145 1.08993 47.7561 0.998003 47.005L0.998001 19.221C0.998001 17.8139 1.86056 17.6087 2.29157 17.682L51.0067 15.1537L52.4654 14.3018Z" fill="#636363"/>
<path opacity="0.5" d="M2.29297 48.8198C1.87077 48.7373 1.02693 48.3361 1.02693 47.3907C1.02693 46.4454 1.02693 28.291 1.02693 19.3319C0.990046 18.7548 1.19206 17.6006 2.29297 17.6006" stroke="black" stroke-opacity="0.5"/>
<path opacity="0.6" d="M48.3672 16.2812L40.7985 22.5196C40.5875 22.657 40.1434 23.2506 40.0553 24.5258C39.9673 25.8009 40.0186 37.0757 40.0553 42.5537C40.1012 42.8927 40.3911 43.7299 41.1838 44.3675C41.9764 45.0051 46.1379 48.5539 48.1195 50.2486M45.2296 16.2813C43.1837 18.1958 39.048 22.0909 38.8719 22.3547C38.6517 22.6845 37.9911 22.7394 37.9636 24.5258C37.9416 25.9548 37.9544 36.8833 37.9636 42.169C37.9636 42.6362 38.382 43.9553 40.0553 45.4943C41.7287 47.0332 44.0553 49.1401 45.0094 50.0013M42.0095 16.5561L36.0095 23.1242L36.0095 42.6911L36.0095 43.4606L42.0095 50.0013" stroke="#636363"/>
<path opacity="0.6" d="M38.9829 16.6963L33.9738 23.2369L33.9738 43.0237L38.9829 49.7842M35.7353 16.6963L31.9922 22.8522L31.9922 43.0237L35.7353 49.5369M32.7353 17.0536L29.7353 23.2369L29.5702 43.1886L32.7353 49.5369M29.7353 17.0536L27.6987 23.2369L27.6987 43.1886L29.5702 49.5369M26.5702 17.3284L25.5794 23.2369L25.5794 43.9032L26.5702 49.2071M23.4877 17.5482L23.4877 23.4568L23.4877 44.1505L23.4877 49.0147M20.6528 17.5482L21.5336 23.4568L21.4235 43.3535L20.4051 48.7949M17.3501 17.5482L19.3318 23.2369L19.3318 43.1886L17.3501 48.7949M14.2125 17.8505L17.3501 22.8522L17.3501 43.1886L14.2125 48.5201M11.1575 17.8505C11.3777 18.1803 13.9832 21.7254 15.2584 23.4568L15.2584 43.1886L11.1575 48.5201M8.15755 18.2902L13.1116 23.4568L13.1116 43.1886L8.15756 48.5201M5.0475 18.2902C5.20162 18.5541 9.18509 21.8445 11.1575 23.4568L11.1575 43.3535L5.0475 48.2453M53.625 18.1803L52.1113 19.0334M52.1113 19.0334L42.3958 24.9958L9.17589 24.9958L1.60716 20.8185M52.1113 19.0334L52.1113 22.4674M52.1113 22.4674L42.3958 26.7546L8.79058 26.7546L1.60716 23.8415M52.1113 22.4674L52.1113 25.4355M52.1113 47.4758L53.625 48.4101M52.1113 47.4758L52.1113 44.2604M52.1113 47.4758L42.3958 41.7321L8.79058 41.7321L1.60716 45.3872M52.1113 44.2604L52.1113 41.0451M52.1113 44.2604L42.5334 39.9183L8.79058 39.9183L1.60716 43.0237M52.1113 25.4355L42.3958 28.5684L8.79058 28.5684L1.60716 26.4248M52.1113 25.4355L52.1113 28.5684M52.1113 28.5684L42.3958 30.5196L8.79058 30.5196L1.60716 29.2005M52.1113 28.5684L52.1113 31.8387M52.1113 31.8387L42.3958 32.3608L8.79058 32.3608L1.60716 31.8387M52.1113 31.8387L52.1113 34.7518M52.1113 34.7518L42.3958 34.367L8.79058 34.367L1.60716 34.7518M52.1113 34.7518L52.1113 38.1595M52.1113 38.1595L42.3958 36.1808L8.79058 36.1808L1.60716 37.5274M52.1113 38.1595L52.1113 41.0451M52.1113 41.0451L42.3958 38.1595L8.79058 38.1595L1.60716 40.2206M48.203 18.62L4.57961 20.3239L4.57961 46.3215L48.203 47.9155M43.8545 21.7254L7.77224 22.4674L7.77224 44.2604L43.8545 44.8925" stroke="#636363" stroke-width="0.5"/>
<path d="M55.9073 14L55.9073 15.8138L58.054 15.8138L58.054 50.6331L55.6596 50.6331L55.6596 52.4743L60.5586 52.4743L60.5586 50.6331L59.7054 50.6331L59.7054 15.8138L60.2834 15.8138L60.2834 14L55.9073 14Z" fill="#FF5B52"/>
<rect x="58.4375" y="47.6934" width="5.44651" height="12.4492" rx="2.72325" transform="rotate(-90 58.4375 47.6934)" fill="#F1CD70"/>
<rect x="58.4375" y="23.5713" width="5.44651" height="12.4492" rx="2.72325" transform="rotate(-90 58.4375 23.5713)" fill="#F1CD70"/>
<path d="M65.4453 47.6934L65.4453 42.2469L72.0589 42.2469C73.5629 42.2469 74.7822 43.4661 74.7822 44.9701C74.7822 46.4741 73.5629 47.6934 72.0589 47.6934L65.4453 47.6934Z" fill="#276725"/>
<path d="M65.4414 23.5713L65.4414 18.1248L72.055 18.1248C73.559 18.1248 74.7783 19.344 74.7783 20.848C74.7783 22.352 73.559 23.5713 72.055 23.5713L65.4414 23.5713Z" fill="#276725"/>
<path d="M73.2734 47.6904C71.0643 47.6904 69.2734 45.8996 69.2734 43.6904L69.2734 21.9058C69.2734 19.6967 71.0643 17.9058 73.2734 17.9058L77.0068 17.9058C79.2159 17.9058 81.0068 19.6967 81.0068 21.9058L81.0068 43.6904C81.0068 45.8996 79.2159 47.6904 77.0068 47.6904L73.2734 47.6904Z" fill="#42934A"/>
<ellipse cx="71.7912" cy="31.3638" rx="6.84518" ry="7.33413" transform="rotate(-90 71.7912 31.3638)" fill="#F1CD70"/>
<path d="M78.3059 26.8475C78.3059 26.1952 76.1029 23.9486 73.9844 23.3145L70.4254 23.3145L67.3749 24.9451L66.8664 25.7604L67.8833 27.6628L66.8664 29.2934L68.3917 30.924L68.9001 32.2828L68.3917 34.7288L66.8664 36.6311L67.8833 39.3488L72.9676 40.1641C74.4929 39.3488 76.9843 39.2401 77.7977 38.8053C78.611 38.3705 77.7977 36.0876 79.8312 36.6311C79.577 35.6347 79.2211 33.3699 79.8312 32.2828C80.5939 30.924 79.577 30.3805 79.0686 29.2934C78.5602 28.2063 78.3059 27.6628 78.3059 26.8475Z" fill="#303030"/>
<path d="M71.077 24.5174C75.3975 24.5174 78.9 27.7505 78.9 31.7387C78.9 35.7269 75.3975 38.96 71.077 38.96C66.7564 38.96 63.2539 37.1546 63.2539 31.7387C63.2539 27.7505 66.7564 24.5174 71.077 24.5174Z" fill="#42934A"/>
<path d="M71.0779 30.5318C70.7456 30.5318 70.4761 30.8012 70.4761 31.1336C70.4761 31.4659 70.7456 31.7354 71.0779 31.7354C71.4103 31.7354 71.6797 31.5849 71.6797 31.1336C71.6797 30.8012 71.4103 30.5318 71.0779 30.5318Z" fill="#276725"/>
<path d="M66.8662 25.7137C61.5701 29.1081 63.2561 37.1437 67.468 38.3559C64.6597 39.1641 58.4414 39.2478 58.4414 31.9741C58.4414 24.7005 64.058 25.1075 66.8662 25.7137Z" fill="#276725"/>
<g clip-path="url(#clip1_112_732)">
<path opacity="0.5" d="M94.2552 26.4196L94.2552 40.1879L112.562 41.5345L112.562 25.018L94.2552 26.4196ZM112.537 22.9844L130.117 23.1218L129.873 43.2384L112.562 43.0735L112.537 22.9844Z" stroke="#B7B7B7" stroke-width="2"/>
<path opacity="0.5" d="M99.0742 27.2181L99.0742 25.2119L97.01 25.2119L97.01 27.2181L99.0742 27.2181Z" fill="black"/>
<path opacity="0.5" d="M131.027 24.0316L131.027 22.0254L128.963 22.0254L128.963 24.0316L131.027 24.0316Z" fill="black"/>
<path opacity="0.5" d="M99.0742 41.4544L99.0742 39.4482L97.01 39.4482L97.01 41.4544L99.0742 41.4544Z" fill="black"/>
<path opacity="0.5" d="M131.027 44.2552L131.027 42.249L128.963 42.249L128.963 44.2552L131.027 44.2552Z" fill="black"/>
<path opacity="0.5" d="M134.465 14.3008L137.988 14.3008L137.988 15.455L134.988 15.455C134.989 15.5238 134.99 15.5221 134.988 15.7023C130.872 18.7503 128.564 20.4317 124.447 23.4797L124.447 43.1291L134.741 50.9339L133.53 50.6041L123.704 43.4863L123.704 22.93L133.557 15.8672L134.988 15.7023L133.364 15.8672C118.108 16.71 87.187 18.5 85.4475 18.3681C83.7081 18.2362 83.5303 19.0093 83.6585 19.4124C83.6129 27.721 83.565 44.8109 83.7411 46.7017C83.9173 48.5924 84.4385 48.4238 84.6769 48.1032L132.511 50.3293L134.741 50.9888L135.374 51.1262L135.429 15.5649L136.144 15.5649L136.144 51.2636L137.988 51.2636L137.988 52.3079C137.53 52.2622 136.491 52.198 136.007 52.3079C135.522 52.4179 133.475 51.6576 132.511 51.2636C117.548 50.4484 87.187 48.8617 85.4475 49.0376C83.7081 49.2135 83.0899 47.7552 82.998 47.004L82.998 19.22C82.998 17.8129 83.8606 17.6077 84.2916 17.681L133.007 15.1527L134.465 14.3008Z" fill="#636363"/>
<path opacity="0.5" d="M84.293 48.8188C83.8708 48.7363 83.0269 48.3351 83.0269 47.3897C83.0269 46.4444 83.0269 28.29 83.0269 19.331C82.99 18.7538 83.1921 17.5996 84.293 17.5996" stroke="black" stroke-opacity="0.5"/>
<path opacity="0.6" d="M130.367 16.2803L122.798 22.5186C122.587 22.656 122.143 23.2496 122.055 24.5248C121.967 25.7999 122.019 37.0747 122.055 42.5528C122.101 42.8917 122.391 43.729 123.184 44.3665C123.976 45.0041 128.138 48.5529 130.119 50.2476M127.23 16.2803C125.184 18.1948 121.048 22.0899 120.872 22.3537C120.652 22.6835 119.991 22.7385 119.964 24.5248C119.942 25.9538 119.954 36.8823 119.964 42.168C119.964 42.6352 120.382 43.9543 122.055 45.4933C123.729 47.0323 126.055 49.1392 127.009 50.0003M124.009 16.5551L118.01 23.1232L118.01 42.6902L118.01 43.4596L124.009 50.0003" stroke="#636363"/>
<path opacity="0.6" d="M120.983 16.6953L115.974 23.236L115.974 43.0228L120.983 49.7832M117.735 16.6953L113.992 22.8512L113.992 43.0228L117.735 49.5359M114.735 17.0526L111.735 23.236L111.57 43.1877L114.735 49.5359M111.735 17.0526L109.699 23.236L109.699 43.1877L111.57 49.5359M108.57 17.3274L107.579 23.236L107.579 43.9022L108.57 49.2061M105.488 17.5472L105.488 23.4558L105.488 44.1495L105.488 49.0138M102.653 17.5472L103.534 23.4558L103.423 43.3525L102.405 48.7939M99.3501 17.5472L101.332 23.236L101.332 43.1877L99.3501 48.7939M96.2125 17.8495L99.3501 22.8512L99.3501 43.1877L96.2125 48.5191M93.1575 17.8495C93.3777 18.1793 95.9832 21.7245 97.2584 23.4558L97.2584 43.1877L93.1575 48.5191M90.1576 18.2893L95.1116 23.4558L95.1116 43.1877L90.1576 48.5191M87.0475 18.2893C87.2016 18.5531 91.1851 21.8436 93.1575 23.4558L93.1575 43.3525L87.0475 48.2443M135.625 18.1793L134.111 19.0324M134.111 19.0324L124.396 24.9948L91.1759 24.9948L83.6072 20.8176M134.111 19.0324L134.111 22.4665M134.111 22.4665L124.396 26.7536L90.7906 26.7536L83.6072 23.8406M134.111 22.4665L134.111 25.4345M134.111 47.4748L135.625 48.4092M134.111 47.4748L134.111 44.2594M134.111 47.4748L124.396 41.7311L90.7906 41.7311L83.6072 45.3862M134.111 44.2594L134.111 41.0441M134.111 44.2594L124.533 39.9173L90.7906 39.9173L83.6072 43.0228M134.111 25.4345L124.396 28.5674L90.7906 28.5674L83.6072 26.4238M134.111 25.4345L134.111 28.5674M134.111 28.5674L124.396 30.5186L90.7906 30.5186L83.6072 29.1995M134.111 28.5674L134.111 31.8377M134.111 31.8377L124.396 32.3599L90.7906 32.3599L83.6072 31.8377M134.111 31.8377L134.111 34.7508M134.111 34.7508L124.396 34.366L90.7906 34.366L83.6072 34.7508M134.111 34.7508L134.111 38.1585M134.111 38.1585L124.396 36.1798L90.7906 36.1798L83.6072 37.5264M134.111 38.1585L134.111 41.0441M134.111 41.0441L124.396 38.1585L90.7906 38.1585L83.6072 40.2196M130.203 18.619L86.5796 20.3229L86.5796 46.3206L130.203 47.9145M125.854 21.7245L89.7722 22.4665L89.7722 44.2594L125.854 44.8915" stroke="#636363" stroke-width="0.5"/>
<path d="M137.907 13.999L137.907 15.8128L140.054 15.8128L140.054 50.6321L137.66 50.6321L137.66 52.4734L142.559 52.4734L142.559 50.6321L141.705 50.6321L141.705 15.8128L142.283 15.8128L142.283 13.999L137.907 13.999Z" fill="#FF5B52"/>
<rect x="140.438" y="47.6924" width="5.44651" height="12.4492" rx="2.72325" transform="rotate(-90 140.438 47.6924)" fill="#F1CD70"/>
<rect width="5.49981" height="13.447" rx="2.7499" transform="matrix(0.936604 -0.350391 0.300733 0.953708 150 1.92773)" fill="#F1CD70"/>
<path d="M147.441 47.6924L147.441 42.2459L154.055 42.2459C155.559 42.2459 156.778 43.4651 156.778 44.9691C156.778 46.4731 155.559 47.6924 154.055 47.6924L147.441 47.6924Z" fill="#276725"/>
<path d="M152.27 9.13965L157.421 7.21256L161.407 19.8549C161.864 21.3034 161.081 22.9089 159.659 23.4411C158.236 23.9732 156.713 23.2304 156.256 21.782L152.27 9.13965Z" fill="#276725"/>
<path d="M155.27 47.6895C153.06 47.6895 151.27 45.8986 151.27 43.6895L151.27 21.9048C151.27 19.6957 153.06 17.9048 155.27 17.9048L159.003 17.9048C161.212 17.9048 163.003 19.6957 163.003 21.9048L163.003 43.6895C163.003 45.8986 161.212 47.6895 159.003 47.6895L155.27 47.6895Z" fill="#42934A"/>
<ellipse cx="153.787" cy="31.3628" rx="6.84518" ry="7.33413" transform="rotate(-90 153.787 31.3628)" fill="#F1CD70"/>
<path d="M161.538 32.0183C161.864 31.4534 161.08 28.4063 159.562 26.7979L156.48 25.0184L153.023 24.9052L152.175 25.3571L152.104 27.5131L150.408 28.4168L150.914 30.5916L150.675 32.0226L149.012 33.8866L146.74 34.7715L146.261 37.6335L150.257 40.8817C151.985 40.9383 154.197 42.0899 155.119 42.12C156.041 42.1501 156.478 39.7664 157.967 41.2539C158.246 40.2638 159.07 38.1245 160.142 37.4881C161.481 36.6927 160.873 35.7135 160.976 34.5179C161.079 33.3222 161.131 32.7244 161.538 32.0183Z" fill="#303030"/>
<path d="M156.445 26.3853C160.187 28.5456 161.604 33.0968 159.61 36.5507C157.616 40.0046 152.966 41.0533 149.224 38.893C145.482 36.7327 143.352 33.418 146.06 28.7276C148.054 25.2737 152.704 24.225 156.445 26.3853Z" fill="#42934A"/>
<path d="M153.074 30.5308C152.742 30.5308 152.472 30.8002 152.472 31.1326C152.472 31.465 152.742 31.7344 153.074 31.7344C153.406 31.7344 153.676 31.5839 153.676 31.1326C153.676 30.8002 153.406 30.5308 153.074 30.5308Z" fill="#276725"/>
<path d="M152.199 25.3164C145.915 25.608 143.358 33.41 146.399 36.5658C143.563 35.8616 138.136 32.8249 141.773 26.5257C145.41 20.2266 150.07 23.3874 152.199 25.3164Z" fill="#276725"/>
</g>
<g clip-path="url(#clip2_112_732)">
<path opacity="0.5" d="M340.255 40.054L340.255 26.2857L358.562 24.9391L358.562 41.4556L340.255 40.054ZM358.537 43.4893L376.117 43.3518L375.873 23.2353L358.562 23.4002L358.537 43.4893Z" stroke="#B7B7B7" stroke-width="2"/>
<path opacity="0.5" d="M345.074 39.2556L345.074 41.2617L343.01 41.2617L343.01 39.2556L345.074 39.2556Z" fill="black"/>
<path opacity="0.5" d="M377.027 42.4421L377.027 44.4482L374.963 44.4482L374.963 42.4421L377.027 42.4421Z" fill="black"/>
<path opacity="0.5" d="M345.074 25.0192L345.074 27.0254L343.01 27.0254L343.01 25.0192L345.074 25.0192Z" fill="black"/>
<path opacity="0.5" d="M377.027 22.2184L377.027 24.2246L374.963 24.2246L374.963 22.2184L377.027 22.2184Z" fill="black"/>
<path opacity="0.5" d="M380.465 52.1729L383.988 52.1729L383.988 51.0186L380.988 51.0186C380.989 50.9499 380.99 50.9515 380.988 50.7713C376.872 47.7233 374.564 46.0419 370.447 42.994L370.447 23.3446L380.741 15.5398L379.53 15.8696L369.704 22.9873L369.704 43.5436L379.557 50.6064L380.988 50.7713L379.364 50.6064C364.108 49.7636 333.187 47.9736 331.448 48.1056C329.708 48.2375 329.53 47.4643 329.659 47.0613C329.613 38.7526 329.565 21.6627 329.741 19.772C329.917 17.8812 330.439 18.0498 330.677 18.3704L378.511 16.1444L380.741 15.4848L381.374 15.3474L381.429 50.9087L382.144 50.9087L382.144 15.21L383.988 15.21L383.988 14.1657C383.53 14.2115 382.491 14.2756 382.007 14.1657C381.522 14.0558 379.475 14.8161 378.511 15.21C363.548 16.0253 333.187 17.6119 331.448 17.436C329.708 17.2601 329.09 18.7185 328.998 19.4697L328.998 47.2536C328.998 48.6607 329.861 48.8659 330.292 48.7926L379.007 51.3209L380.465 52.1729Z" fill="#636363"/>
<path opacity="0.5" d="M330.293 17.6548C329.871 17.7373 329.027 18.1385 329.027 19.0839C329.027 20.0293 329.027 38.1837 329.027 47.1427C328.99 47.7198 329.192 48.874 330.293 48.874" stroke="black" stroke-opacity="0.5"/>
<path opacity="0.6" d="M376.367 50.1934L368.798 43.955C368.587 43.8176 368.143 43.224 368.055 41.9489C367.967 40.6737 368.019 29.3989 368.055 23.9209C368.101 23.5819 368.391 22.7447 369.184 22.1071C369.976 21.4695 374.138 17.9207 376.119 16.226M373.23 50.1934C371.184 48.2788 367.048 44.3837 366.872 44.1199C366.652 43.7901 365.991 43.7352 365.964 41.9489C365.942 40.5198 365.954 29.5913 365.964 24.3056C365.964 23.8384 366.382 22.5193 368.055 20.9803C369.729 19.4414 372.055 17.3345 373.009 16.4733M370.009 49.9185L364.01 43.3504L364.01 23.7835L364.01 23.014L370.009 16.4733" stroke="#636363"/>
<path opacity="0.6" d="M366.983 49.7783L361.974 43.2377L361.974 23.4509L366.983 16.6904M363.735 49.7783L359.992 43.6224L359.992 23.4509L363.735 16.9377M360.735 49.4211L357.735 43.2377L357.57 23.286L360.735 16.9377M357.735 49.4211L355.699 43.2377L355.699 23.286L357.57 16.9377M354.57 49.1462L353.579 43.2377L353.579 22.5715L354.57 17.2675M351.488 48.9264L351.488 43.0178L351.488 22.3241L351.488 17.4599M348.653 48.9264L349.534 43.0178L349.423 23.1211L348.405 17.6797M345.35 48.9264L347.332 43.2377L347.332 23.286L345.35 17.6797M342.213 48.6241L345.35 43.6224L345.35 23.286L342.213 17.9545M339.158 48.6241C339.378 48.2943 341.983 44.7492 343.258 43.0178L343.258 23.286L339.158 17.9545M336.158 48.1844L341.112 43.0178L341.112 23.286L336.158 17.9545M333.047 48.1844C333.202 47.9206 337.185 44.6301 339.158 43.0178L339.158 23.1211L333.047 18.2294M381.625 48.2943L380.111 47.4412M380.111 47.4412L370.396 41.4789L337.176 41.4789L329.607 45.6561M380.111 47.4412L380.111 44.0072M380.111 44.0072L370.396 39.72L336.791 39.72L329.607 42.6331M380.111 44.0072L380.111 41.0391M380.111 18.9988L381.625 18.0645M380.111 18.9988L380.111 22.2142M380.111 18.9988L370.396 24.7425L336.791 24.7425L329.607 21.0874M380.111 22.2142L380.111 25.4296M380.111 22.2142L370.533 26.5563L336.791 26.5563L329.607 23.4509M380.111 41.0391L370.396 37.9062L336.791 37.9062L329.607 40.0498M380.111 41.0391L380.111 37.9062M380.111 37.9062L370.396 35.955L336.791 35.955L329.607 37.2742M380.111 37.9062L380.111 34.6359M380.111 34.6359L370.396 34.1138L336.791 34.1138L329.607 34.6359M380.111 34.6359L380.111 31.7229M380.111 31.7229L370.396 32.1076L336.791 32.1076L329.607 31.7229M380.111 31.7229L380.111 28.3151M380.111 28.3151L370.396 30.2938L336.791 30.2938L329.607 28.9472M380.111 28.3151L380.111 25.4296M380.111 25.4296L370.396 28.3151L336.791 28.3151L329.607 26.254M376.203 47.8546L332.58 46.1507L332.58 20.1531L376.203 18.5591M371.854 44.7492L335.772 44.0072L335.772 22.2142L371.854 21.5821" stroke="#636363" stroke-width="0.5"/>
<path d="M383.907 52.4746L383.907 50.6608L386.054 50.6608L386.054 15.8415L383.66 15.8415L383.66 14.0003L388.559 14.0003L388.559 15.8415L387.705 15.8415L387.705 50.6608L388.283 50.6608L388.283 52.4746L383.907 52.4746Z" fill="#FF5B52"/>
<rect width="5.44651" height="12.4492" rx="2.72325" transform="matrix(-1.69245e-07 1 1 1.39661e-07 386.438 18.7812)" fill="#F1CD70"/>
<rect width="5.49981" height="13.447" rx="2.7499" transform="matrix(0.936604 0.350391 0.300733 -0.953708 396 64.5459)" fill="#F1CD70"/>
<path d="M393.441 18.7812L393.441 24.2278L400.055 24.2278C401.559 24.2278 402.778 23.0085 402.778 21.5045C402.778 20.0005 401.559 18.7813 400.055 18.7813L393.441 18.7812Z" fill="#276725"/>
<path d="M398.27 57.334L403.421 59.2611L407.407 46.6187C407.864 45.1703 407.081 43.5647 405.659 43.0326C404.236 42.5004 402.713 43.2432 402.256 44.6916L398.27 57.334Z" fill="#276725"/>
<path d="M401.27 18.7842C399.06 18.7842 397.27 20.575 397.27 22.7842L397.27 44.5688C397.27 46.7779 399.06 48.5688 401.27 48.5688L405.003 48.5688C407.212 48.5688 409.003 46.7779 409.003 44.5688L409.003 22.7842C409.003 20.575 407.212 18.7842 405.003 18.7842L401.27 18.7842Z" fill="#42934A"/>
<ellipse rx="6.84518" ry="7.33413" transform="matrix(-1.54453e-07 1 1 1.54453e-07 399.787 35.1108)" fill="#F1CD70"/>
<path d="M407.538 34.4553C407.864 35.0202 407.08 38.0673 405.562 39.6757L402.48 41.4552L399.023 41.5684L398.175 41.1165L398.104 38.9606L396.408 38.0569L396.914 35.8821L396.675 34.451L395.012 32.587L392.74 31.7022L392.261 28.8401L396.257 25.5919C397.985 25.5353 400.197 24.3838 401.119 24.3537C402.041 24.3236 402.478 26.7073 403.967 25.2198C404.246 26.2099 405.07 28.3491 406.142 28.9855C407.481 29.781 406.873 30.7601 406.976 31.9558C407.079 33.1514 407.131 33.7493 407.538 34.4553Z" fill="#303030"/>
<path d="M402.445 40.0883C406.187 37.928 407.604 33.3768 405.61 29.9229C403.616 26.4691 398.966 25.4204 395.224 27.5807C391.482 29.7409 389.352 33.0556 392.06 37.746C394.054 41.1999 398.704 42.2486 402.445 40.0883Z" fill="#42934A"/>
<path d="M399.074 35.9428C398.742 35.9428 398.472 35.6734 398.472 35.341C398.472 35.0087 398.742 34.7393 399.074 34.7393C399.406 34.7393 399.676 34.8897 399.676 35.341C399.676 35.6734 399.406 35.9428 399.074 35.9428Z" fill="#276725"/>
<path d="M398.199 41.1572C391.915 40.8657 389.358 33.0636 392.399 29.9078C389.563 30.612 384.136 33.6487 387.773 39.9479C391.41 46.2471 396.07 43.0863 398.199 41.1572Z" fill="#276725"/>
</g>
<g clip-path="url(#clip3_112_732)">
<path opacity="0.5" d="M175.255 26.4196L175.255 40.1879L193.562 41.5345L193.562 25.018L175.255 26.4196ZM193.537 22.9844L211.117 23.1218L210.873 43.2384L193.562 43.0735L193.537 22.9844Z" stroke="#B7B7B7" stroke-width="2"/>
<path opacity="0.5" d="M180.074 27.2181L180.074 25.2119L178.01 25.2119L178.01 27.2181L180.074 27.2181Z" fill="black"/>
<path opacity="0.5" d="M212.027 24.0316L212.027 22.0254L209.963 22.0254L209.963 24.0316L212.027 24.0316Z" fill="black"/>
<path opacity="0.5" d="M180.074 41.4544L180.074 39.4482L178.01 39.4482L178.01 41.4544L180.074 41.4544Z" fill="black"/>
<path opacity="0.5" d="M212.027 44.2552L212.027 42.249L209.963 42.249L209.963 44.2552L212.027 44.2552Z" fill="black"/>
<path opacity="0.5" d="M215.465 14.3008L218.988 14.3008L218.988 15.455L215.988 15.455C215.989 15.5238 215.99 15.5221 215.988 15.7023C211.872 18.7503 209.564 20.4317 205.447 23.4797L205.447 43.1291L215.741 50.9339L214.53 50.6041L204.704 43.4863L204.704 22.93L214.557 15.8672L215.988 15.7023L214.364 15.8672C199.108 16.71 168.187 18.5 166.448 18.3681C164.708 18.2362 164.53 19.0093 164.659 19.4124C164.613 27.721 164.565 44.8109 164.741 46.7017C164.917 48.5924 165.439 48.4238 165.677 48.1032L213.511 50.3293L215.741 50.9888L216.374 51.1262L216.429 15.5649L217.144 15.5649L217.144 51.2636L218.988 51.2636L218.988 52.3079C218.53 52.2622 217.491 52.198 217.007 52.3079C216.522 52.4179 214.475 51.6576 213.511 51.2636C198.548 50.4484 168.187 48.8617 166.448 49.0376C164.708 49.2135 164.09 47.7552 163.998 47.004L163.998 19.22C163.998 17.8129 164.861 17.6077 165.292 17.681L214.007 15.1527L215.465 14.3008Z" fill="#636363"/>
<path opacity="0.5" d="M165.293 48.8188C164.871 48.7363 164.027 48.3351 164.027 47.3897C164.027 46.4444 164.027 28.29 164.027 19.331C163.99 18.7538 164.192 17.5996 165.293 17.5996" stroke="black" stroke-opacity="0.5"/>
<path opacity="0.6" d="M211.367 16.2803L203.798 22.5186C203.587 22.656 203.143 23.2496 203.055 24.5248C202.967 25.7999 203.019 37.0747 203.055 42.5528C203.101 42.8917 203.391 43.729 204.184 44.3665C204.976 45.0041 209.138 48.5529 211.119 50.2476M208.23 16.2803C206.184 18.1948 202.048 22.0899 201.872 22.3537C201.652 22.6835 200.991 22.7385 200.964 24.5248C200.942 25.9538 200.954 36.8823 200.964 42.168C200.964 42.6352 201.382 43.9543 203.055 45.4933C204.729 47.0323 207.055 49.1392 208.009 50.0003M205.009 16.5551L199.01 23.1232L199.01 42.6902L199.01 43.4596L205.009 50.0003" stroke="#636363"/>
<path opacity="0.6" d="M201.983 16.6953L196.974 23.236L196.974 43.0228L201.983 49.7832M198.735 16.6953L194.992 22.8512L194.992 43.0228L198.735 49.5359M195.735 17.0526L192.735 23.236L192.57 43.1877L195.735 49.5359M192.735 17.0526L190.699 23.236L190.699 43.1877L192.57 49.5359M189.57 17.3274L188.579 23.236L188.579 43.9022L189.57 49.2061M186.488 17.5472L186.488 23.4558L186.488 44.1495L186.488 49.0138M183.653 17.5472L184.534 23.4558L184.423 43.3525L183.405 48.7939M180.35 17.5472L182.332 23.236L182.332 43.1877L180.35 48.7939M177.213 17.8495L180.35 22.8512L180.35 43.1877L177.213 48.5191M174.158 17.8495C174.378 18.1793 176.983 21.7245 178.258 23.4558L178.258 43.1877L174.158 48.5191M171.158 18.2893L176.112 23.4558L176.112 43.1877L171.158 48.5191M168.047 18.2893C168.202 18.5531 172.185 21.8436 174.158 23.4558L174.158 43.3525L168.047 48.2443M216.625 18.1793L215.111 19.0324M215.111 19.0324L205.396 24.9948L172.176 24.9948L164.607 20.8176M215.111 19.0324L215.111 22.4665M215.111 22.4665L205.396 26.7536L171.791 26.7536L164.607 23.8406M215.111 22.4665L215.111 25.4345M215.111 47.4748L216.625 48.4092M215.111 47.4748L215.111 44.2594M215.111 47.4748L205.396 41.7311L171.791 41.7311L164.607 45.3862M215.111 44.2594L215.111 41.0441M215.111 44.2594L205.533 39.9173L171.791 39.9173L164.607 43.0228M215.111 25.4345L205.396 28.5674L171.791 28.5674L164.607 26.4238M215.111 25.4345L215.111 28.5674M215.111 28.5674L205.396 30.5186L171.791 30.5186L164.607 29.1995M215.111 28.5674L215.111 31.8377M215.111 31.8377L205.396 32.3599L171.791 32.3599L164.607 31.8377M215.111 31.8377L215.111 34.7508M215.111 34.7508L205.396 34.366L171.791 34.366L164.607 34.7508M215.111 34.7508L215.111 38.1585M215.111 38.1585L205.396 36.1798L171.791 36.1798L164.607 37.5264M215.111 38.1585L215.111 41.0441M215.111 41.0441L205.396 38.1585L171.791 38.1585L164.607 40.2196M211.203 18.619L167.58 20.3229L167.58 46.3206L211.203 47.9145M206.854 21.7245L170.772 22.4665L170.772 44.2594L206.854 44.8915" stroke="#636363" stroke-width="0.5"/>
<path d="M218.907 13.999L218.907 15.8128L221.054 15.8128L221.054 50.6321L218.66 50.6321L218.66 52.4734L223.559 52.4734L223.559 50.6321L222.705 50.6321L222.705 15.8128L223.283 15.8128L223.283 13.999L218.907 13.999Z" fill="#FF5B52"/>
<rect x="221.438" y="47.6924" width="5.44651" height="12.4492" rx="2.72325" transform="rotate(-90 221.438 47.6924)" fill="#F1CD70"/>
<rect x="217" y="11.5898" width="5.44651" height="12.4492" rx="2.72325" transform="rotate(-57.4377 217 11.5898)" fill="#F1CD70"/>
<path d="M228.441 47.6924L228.441 42.2459L235.055 42.2459C236.559 42.2459 237.778 43.4651 237.778 44.9691C237.778 46.4731 236.559 47.6924 235.055 47.6924L228.441 47.6924Z" fill="#276725"/>
<path d="M222.895 15.3594L225.826 10.769L236.02 17.2787C237.287 18.0882 237.659 19.772 236.849 21.0396C236.04 22.3072 234.356 22.6785 233.088 21.8691L222.895 15.3594Z" fill="#276725"/>
<path d="M236.273 47.6895C234.064 47.6895 232.273 45.8986 232.273 43.6895L232.273 21.9048C232.273 19.6957 234.064 17.9048 236.273 17.9048L240.007 17.9048C242.216 17.9048 244.007 19.6957 244.007 21.9048L244.007 43.6895C244.007 45.8986 242.216 47.6895 240.007 47.6895L236.273 47.6895Z" fill="#42934A"/>
<ellipse cx="234.791" cy="31.3628" rx="6.84518" ry="7.33413" transform="rotate(-90 234.791 31.3628)" fill="#F1CD70"/>
<path d="M241.306 26.8465C241.306 26.1942 239.103 23.9476 236.984 23.3135L233.425 23.3135L230.375 24.9441L229.866 25.7594L230.883 27.6618L229.866 29.2924L231.392 30.923L231.9 32.2819L231.392 34.7278L229.866 36.6302L230.883 39.3479L235.968 40.1632C237.493 39.3479 239.984 39.2392 240.798 38.8043C241.611 38.3695 240.798 36.0866 242.831 36.6302C242.577 35.6337 242.221 33.3689 242.831 32.2819C243.594 30.923 242.577 30.3795 242.069 29.2924C241.56 28.2053 241.306 27.6618 241.306 26.8465Z" fill="#303030"/>
<path d="M234.077 24.5164C238.398 24.5164 241.9 27.7495 241.9 31.7377C241.9 35.7259 238.398 38.959 234.077 38.959C229.756 38.959 226.254 37.1537 226.254 31.7377C226.254 27.7495 229.756 24.5164 234.077 24.5164Z" fill="#42934A"/>
<path d="M234.078 30.5308C233.746 30.5308 233.476 30.8002 233.476 31.1326C233.476 31.465 233.746 31.7344 234.078 31.7344C234.41 31.7344 234.68 31.5839 234.68 31.1326C234.68 30.8002 234.41 30.5308 234.078 30.5308Z" fill="#276725"/>
<path d="M229.866 25.7127C224.57 29.1071 226.256 37.1427 230.468 38.355C227.66 39.1632 221.441 39.2468 221.441 31.9732C221.441 24.6995 227.058 25.1066 229.866 25.7127Z" fill="#276725"/>
</g>
<g clip-path="url(#clip4_112_732)">
<path opacity="0.5" d="M421.255 40.055L421.255 26.2867L439.562 24.9401L439.562 41.4566L421.255 40.055ZM439.537 43.4902L457.117 43.3528L456.873 23.2362L439.562 23.4011L439.537 43.4902Z" stroke="#B7B7B7" stroke-width="2"/>
<path opacity="0.5" d="M426.074 39.2565L426.074 41.2627L424.01 41.2627L424.01 39.2565L426.074 39.2565Z" fill="black"/>
<path opacity="0.5" d="M458.027 42.4431L458.027 44.4492L455.963 44.4492L455.963 42.4431L458.027 42.4431Z" fill="black"/>
<path opacity="0.5" d="M426.074 25.0202L426.074 27.0264L424.01 27.0264L424.01 25.0202L426.074 25.0202Z" fill="black"/>
<path opacity="0.5" d="M458.027 22.2194L458.027 24.2256L455.963 24.2256L455.963 22.2194L458.027 22.2194Z" fill="black"/>
<path opacity="0.5" d="M461.465 52.1738L464.988 52.1738L464.988 51.0196L461.988 51.0196C461.989 50.9508 461.99 50.9525 461.988 50.7723C457.872 47.7243 455.564 46.0429 451.447 42.9949L451.447 23.3455L461.741 15.5408L460.53 15.8705L450.704 22.9883L450.704 43.5446L460.557 50.6074L461.988 50.7723L460.364 50.6074C445.108 49.7646 414.187 47.9746 412.448 48.1065C410.708 48.2384 410.53 47.4653 410.659 47.0622C410.613 38.7536 410.565 21.6637 410.741 19.7729C410.917 17.8822 411.439 18.0508 411.677 18.3714L459.511 16.1454L461.741 15.4858L462.374 15.3484L462.429 50.9097L463.144 50.9097L463.144 15.211L464.988 15.211L464.988 14.1667C464.53 14.2125 463.491 14.2766 463.007 14.1667C462.522 14.0567 460.475 14.8171 459.511 15.211C444.548 16.0262 414.187 17.6129 412.448 17.437C410.708 17.2611 410.09 18.7194 409.998 19.4706L409.998 47.2546C409.998 48.6617 410.861 48.8669 411.292 48.7936L460.007 51.3219L461.465 52.1738Z" fill="#636363"/>
<path opacity="0.5" d="M411.293 17.6558C410.871 17.7383 410.027 18.1395 410.027 19.0849C410.027 20.0302 410.027 38.1846 410.027 47.1437C409.99 47.7208 410.192 48.875 411.293 48.875" stroke="black" stroke-opacity="0.5"/>
<path opacity="0.6" d="M457.367 50.1943L449.798 43.956C449.587 43.8186 449.143 43.225 449.055 41.9498C448.967 40.6747 449.019 29.3999 449.055 23.9219C449.101 23.5829 449.391 22.7456 450.184 22.1081C450.976 21.4705 455.138 17.9217 457.119 16.227M454.23 50.1943C452.184 48.2798 448.048 44.3847 447.872 44.1209C447.652 43.7911 446.991 43.7361 446.964 41.9498C446.942 40.5208 446.954 29.5923 446.964 24.3066C446.964 23.8394 447.382 22.5203 449.055 20.9813C450.729 19.4423 453.055 17.3354 454.009 16.4743M451.009 49.9195L445.01 43.3514L445.01 23.7845L445.01 23.015L451.009 16.4743" stroke="#636363"/>
<path opacity="0.6" d="M447.983 49.7793L442.974 43.2387L442.974 23.4518L447.983 16.6914M444.735 49.7793L440.992 43.6234L440.992 23.4518L444.735 16.9387M441.735 49.422L438.735 43.2387L438.57 23.287L441.735 16.9387M438.735 49.422L436.699 43.2387L436.699 23.287L438.57 16.9387M435.57 49.1472L434.579 43.2387L434.579 22.5724L435.57 17.2685M432.488 48.9274L432.488 43.0188L432.488 22.3251L432.488 17.4608M429.653 48.9274L430.534 43.0188L430.423 23.1221L429.405 17.6807M426.35 48.9274L428.332 43.2387L428.332 23.287L426.35 17.6807M423.213 48.6251L426.35 43.6234L426.35 23.287L423.213 17.9555M420.158 48.6251C420.378 48.2953 422.983 44.7501 424.258 43.0188L424.258 23.287L420.158 17.9555M417.158 48.1854L422.112 43.0188L422.112 23.287L417.158 17.9555M414.047 48.1854C414.202 47.9215 418.185 44.631 420.158 43.0188L420.158 23.1221L414.047 18.2303M462.625 48.2953L461.111 47.4422M461.111 47.4422L451.396 41.4798L418.176 41.4798L410.607 45.657M461.111 47.4422L461.111 44.0081M461.111 44.0081L451.396 39.721L417.791 39.721L410.607 42.6341M461.111 44.0081L461.111 41.0401M461.111 18.9998L462.625 18.0654M461.111 18.9998L461.111 22.2152M461.111 18.9998L451.396 24.7435L417.791 24.7435L410.607 21.0884M461.111 22.2152L461.111 25.4305M461.111 22.2152L451.533 26.5573L417.791 26.5573L410.607 23.4518M461.111 41.0401L451.396 37.9072L417.791 37.9072L410.607 40.0508M461.111 41.0401L461.111 37.9072M461.111 37.9072L451.396 35.956L417.791 35.956L410.607 37.2751M461.111 37.9072L461.111 34.6369M461.111 34.6369L451.396 34.1147L417.791 34.1147L410.607 34.6369M461.111 34.6369L461.111 31.7238M461.111 31.7238L451.396 32.1086L417.791 32.1086L410.607 31.7238M461.111 31.7238L461.111 28.3161M461.111 28.3161L451.396 30.2948L417.791 30.2948L410.607 28.9482M461.111 28.3161L461.111 25.4305M461.111 25.4305L451.396 28.3161L417.791 28.3161L410.607 26.255M457.203 47.8556L413.58 46.1517L413.58 20.154L457.203 18.5601M452.854 44.7501L416.772 44.0081L416.772 22.2152L452.854 21.5831" stroke="#636363" stroke-width="0.5"/>
<path d="M464.907 52.4756L464.907 50.6618L467.054 50.6618L467.054 15.8425L464.66 15.8425L464.66 14.0012L469.559 14.0012L469.559 15.8425L468.705 15.8425L468.705 50.6618L469.283 50.6618L469.283 52.4756L464.907 52.4756Z" fill="#FF5B52"/>
<rect width="5.44651" height="12.4492" rx="2.72325" transform="matrix(-1.69245e-07 1 1 1.39661e-07 467.438 18.7822)" fill="#F1CD70"/>
<rect width="5.44651" height="12.4492" rx="2.72325" transform="matrix(0.538217 0.842807 0.842807 -0.538217 463 54.8848)" fill="#F1CD70"/>
<path d="M474.441 18.7822L474.441 24.2287L481.055 24.2287C482.559 24.2287 483.778 23.0095 483.778 21.5055C483.778 20.0015 482.559 18.7822 481.055 18.7822L474.441 18.7822Z" fill="#276725"/>
<path d="M468.895 51.1152L471.826 55.7056L482.02 49.1959C483.287 48.3864 483.659 46.7026 482.849 45.435C482.04 44.1674 480.356 43.7961 479.088 44.6055L468.895 51.1152Z" fill="#276725"/>
<path d="M482.273 18.7852C480.064 18.7852 478.273 20.576 478.273 22.7852L478.273 44.5698C478.273 46.7789 480.064 48.5698 482.273 48.5698L486.007 48.5698C488.216 48.5698 490.007 46.7789 490.007 44.5698L490.007 22.7852C490.007 20.576 488.216 18.7852 486.007 18.7852L482.273 18.7852Z" fill="#42934A"/>
<ellipse rx="6.84518" ry="7.33413" transform="matrix(-1.54453e-07 1 1 1.54453e-07 480.791 35.1118)" fill="#F1CD70"/>
<path d="M487.306 39.6281C487.306 40.2804 485.103 42.527 482.984 43.1611L479.425 43.1611L476.375 41.5305L475.866 40.7152L476.883 38.8128L475.866 37.1822L477.392 35.5516L477.9 34.1927L477.392 31.7468L475.866 29.8444L476.883 27.1268L481.968 26.3114C483.493 27.1268 485.984 27.2355 486.798 27.6703C487.611 28.1051 486.798 30.388 488.831 29.8444C488.577 30.8409 488.221 33.1057 488.831 34.1927C489.594 35.5516 488.577 36.0951 488.069 37.1822C487.56 38.2693 487.306 38.8128 487.306 39.6281Z" fill="#303030"/>
<path d="M480.077 41.9582C484.398 41.9582 487.9 38.7251 487.9 34.7369C487.9 30.7487 484.398 27.5156 480.077 27.5156C475.756 27.5156 472.254 29.3209 472.254 34.7369C472.254 38.7251 475.756 41.9582 480.077 41.9582Z" fill="#42934A"/>
<path d="M480.078 35.9438C479.746 35.9438 479.476 35.6744 479.476 35.342C479.476 35.0097 479.746 34.7402 480.078 34.7402C480.41 34.7402 480.68 34.8907 480.68 35.342C480.68 35.6744 480.41 35.9438 480.078 35.9438Z" fill="#276725"/>
<path d="M475.866 40.7619C470.57 37.3675 472.256 29.3319 476.468 28.1196C473.66 27.3115 467.441 27.2278 467.441 34.5015C467.441 41.7751 473.058 41.368 475.866 40.7619Z" fill="#276725"/>
</g>
<g clip-path="url(#clip5_112_732)">
<path opacity="0.5" d="M257.255 26.4206L257.255 40.1889L275.562 41.5355L275.562 25.019L257.255 26.4206ZM275.537 22.9854L293.117 23.1228L292.873 43.2393L275.562 43.0745L275.537 22.9854Z" stroke="#B7B7B7" stroke-width="2"/>
<path opacity="0.5" d="M262.074 27.2191L262.074 25.2129L260.01 25.2129L260.01 27.2191L262.074 27.2191Z" fill="black"/>
<path opacity="0.5" d="M294.027 24.0325L294.027 22.0264L291.963 22.0264L291.963 24.0325L294.027 24.0325Z" fill="black"/>
<path opacity="0.5" d="M262.074 41.4554L262.074 39.4492L260.01 39.4492L260.01 41.4554L262.074 41.4554Z" fill="black"/>
<path opacity="0.5" d="M294.027 44.2562L294.027 42.25L291.963 42.25L291.963 44.2562L294.027 44.2562Z" fill="black"/>
<path opacity="0.5" d="M297.465 14.3018L300.988 14.3018L300.988 15.456L297.988 15.456C297.989 15.5248 297.99 15.5231 297.988 15.7033C293.872 18.7513 291.564 20.4327 287.447 23.4806L287.447 43.13L297.741 50.9348L296.53 50.605L286.704 43.4873L286.704 22.931L296.557 15.8682L297.988 15.7033L296.364 15.8682C281.108 16.711 250.187 18.501 248.448 18.369C246.708 18.2371 246.53 19.0103 246.659 19.4134C246.613 27.722 246.565 44.8119 246.741 46.7027C246.917 48.5934 247.439 48.4248 247.677 48.1042L295.511 50.3302L297.741 50.9898L298.374 51.1272L298.429 15.5659L299.144 15.5659L299.144 51.2646L300.988 51.2646L300.988 52.3089C300.53 52.2631 299.491 52.199 299.007 52.3089C298.522 52.4188 296.475 51.6585 295.511 51.2646C280.548 50.4493 250.187 48.8627 248.448 49.0386C246.708 49.2145 246.09 47.7561 245.998 47.005L245.998 19.221C245.998 17.8139 246.861 17.6087 247.292 17.682L296.007 15.1537L297.465 14.3018Z" fill="#636363"/>
<path opacity="0.5" d="M247.293 48.8198C246.871 48.7373 246.027 48.3361 246.027 47.3907C246.027 46.4454 246.027 28.291 246.027 19.3319C245.99 18.7548 246.192 17.6006 247.293 17.6006" stroke="black" stroke-opacity="0.5"/>
<path opacity="0.6" d="M293.367 16.2812L285.798 22.5196C285.587 22.657 285.143 23.2506 285.055 24.5258C284.967 25.8009 285.019 37.0757 285.055 42.5537C285.101 42.8927 285.391 43.7299 286.184 44.3675C286.976 45.0051 291.138 48.5539 293.119 50.2486M290.23 16.2813C288.184 18.1958 284.048 22.0909 283.872 22.3547C283.652 22.6845 282.991 22.7394 282.964 24.5258C282.942 25.9548 282.954 36.8833 282.964 42.169C282.964 42.6362 283.382 43.9553 285.055 45.4943C286.729 47.0332 289.055 49.1401 290.009 50.0013M287.009 16.5561L281.01 23.1242L281.01 42.6911L281.01 43.4606L287.009 50.0013" stroke="#636363"/>
<path opacity="0.6" d="M283.983 16.6963L278.974 23.2369L278.974 43.0237L283.983 49.7842M280.735 16.6963L276.992 22.8522L276.992 43.0237L280.735 49.5369M277.735 17.0536L274.735 23.2369L274.57 43.1886L277.735 49.5369M274.735 17.0536L272.699 23.2369L272.699 43.1886L274.57 49.5369M271.57 17.3284L270.579 23.2369L270.579 43.9032L271.57 49.2071M268.488 17.5482L268.488 23.4568L268.488 44.1505L268.488 49.0147M265.653 17.5482L266.534 23.4568L266.423 43.3535L265.405 48.7949M262.35 17.5482L264.332 23.2369L264.332 43.1886L262.35 48.7949M259.213 17.8505L262.35 22.8522L262.35 43.1886L259.213 48.5201M256.158 17.8505C256.378 18.1803 258.983 21.7254 260.258 23.4568L260.258 43.1886L256.158 48.5201M253.158 18.2902L258.112 23.4568L258.112 43.1886L253.158 48.5201M250.047 18.2902C250.202 18.5541 254.185 21.8445 256.158 23.4568L256.158 43.3535L250.047 48.2453M298.625 18.1803L297.111 19.0334M297.111 19.0334L287.396 24.9958L254.176 24.9958L246.607 20.8185M297.111 19.0334L297.111 22.4674M297.111 22.4674L287.396 26.7546L253.791 26.7546L246.607 23.8415M297.111 22.4674L297.111 25.4355M297.111 47.4758L298.625 48.4101M297.111 47.4758L297.111 44.2604M297.111 47.4758L287.396 41.7321L253.791 41.7321L246.607 45.3872M297.111 44.2604L297.111 41.0451M297.111 44.2604L287.533 39.9183L253.791 39.9183L246.607 43.0237M297.111 25.4355L287.396 28.5684L253.791 28.5684L246.607 26.4248M297.111 25.4355L297.111 28.5684M297.111 28.5684L287.396 30.5196L253.791 30.5196L246.607 29.2005M297.111 28.5684L297.111 31.8387M297.111 31.8387L287.396 32.3608L253.791 32.3608L246.607 31.8387M297.111 31.8387L297.111 34.7518M297.111 34.7518L287.396 34.367L253.791 34.367L246.607 34.7518M297.111 34.7518L297.111 38.1595M297.111 38.1595L287.396 36.1808L253.791 36.1808L246.607 37.5274M297.111 38.1595L297.111 41.0451M297.111 41.0451L287.396 38.1595L253.791 38.1595L246.607 40.2206M293.203 18.62L249.58 20.3239L249.58 46.3215L293.203 47.9155M288.854 21.7254L252.772 22.4674L252.772 44.2604L288.854 44.8925" stroke="#636363" stroke-width="0.5"/>
<path d="M300.907 14L300.907 15.8138L303.054 15.8138L303.054 50.6331L300.66 50.6331L300.66 52.4743L305.559 52.4743L305.559 50.6331L304.705 50.6331L304.705 15.8138L305.283 15.8138L305.283 14L300.907 14Z" fill="#FF5B52"/>
<rect x="303.438" y="47.6934" width="5.44651" height="12.4492" rx="2.72325" transform="rotate(-90 303.438 47.6934)" fill="#F1CD70"/>
<rect x="296.355" y="25.8594" width="5.44651" height="12.4492" rx="2.72325" transform="rotate(-93.7543 296.355 25.8594)" fill="#F1CD70"/>
<path d="M310.441 47.6934L310.441 42.2469L317.055 42.2469C318.559 42.2469 319.778 43.4661 319.778 44.9701C319.778 46.4741 318.559 47.6934 317.055 47.6934L310.441 47.6934Z" fill="#276725"/>
<path d="M303.34 25.4062L302.983 19.9714L315.052 19.1795C316.553 19.081 317.849 20.2178 317.948 21.7186C318.046 23.2194 316.91 24.5158 315.409 24.6143L303.34 25.4062Z" fill="#276725"/>
<path d="M318.27 47.6904C316.06 47.6904 314.27 45.8996 314.27 43.6904L314.27 21.9058C314.27 19.6967 316.06 17.9058 318.27 17.9058L322.003 17.9058C324.212 17.9058 326.003 19.6967 326.003 21.9058L326.003 43.6904C326.003 45.8996 324.212 47.6904 322.003 47.6904L318.27 47.6904Z" fill="#42934A"/>
<ellipse cx="316.787" cy="31.3638" rx="6.84518" ry="7.33413" transform="rotate(-90 316.787 31.3638)" fill="#F1CD70"/>
<path d="M323.302 26.8475C323.302 26.1952 321.099 23.9486 318.981 23.3145L315.422 23.3145L312.371 24.9451L311.863 25.7604L312.879 27.6628L311.863 29.2934L313.388 30.924L313.896 32.2828L313.388 34.7288L311.863 36.6311L312.879 39.3488L317.964 40.1641C319.489 39.3488 321.98 39.2401 322.794 38.8053C323.607 38.3705 322.794 36.0876 324.827 36.6311C324.573 35.6347 324.217 33.3699 324.827 32.2828C325.59 30.924 324.573 30.3805 324.065 29.2934C323.556 28.2063 323.302 27.6628 323.302 26.8475Z" fill="#303030"/>
<path d="M316.073 24.5174C320.394 24.5174 323.896 27.7505 323.896 31.7387C323.896 35.7269 320.394 38.96 316.073 38.96C311.753 38.96 308.25 37.1546 308.25 31.7387C308.25 27.7505 311.753 24.5174 316.073 24.5174Z" fill="#42934A"/>
<path d="M316.074 30.5318C315.742 30.5318 315.472 30.8012 315.472 31.1336C315.472 31.4659 315.742 31.7354 316.074 31.7354C316.406 31.7354 316.676 31.5849 316.676 31.1336C316.676 30.8012 316.406 30.5318 316.074 30.5318Z" fill="#276725"/>
<path d="M311.862 25.7137C306.566 29.1081 308.252 37.1437 312.464 38.3559C309.656 39.1641 303.438 39.2478 303.437 31.9741C303.437 24.7005 309.054 25.1075 311.862 25.7137Z" fill="#276725"/>
</g>
<g clip-path="url(#clip6_112_732)">
<path opacity="0.5" d="M503.255 40.054L503.255 26.2857L521.562 24.9391L521.562 41.4556L503.255 40.054ZM521.537 43.4893L539.117 43.3518L538.873 23.2353L521.562 23.4002L521.537 43.4893Z" stroke="#B7B7B7" stroke-width="2"/>
<path opacity="0.5" d="M508.074 39.2556L508.074 41.2617L506.01 41.2617L506.01 39.2556L508.074 39.2556Z" fill="black"/>
<path opacity="0.5" d="M540.027 42.4421L540.027 44.4482L537.963 44.4482L537.963 42.4421L540.027 42.4421Z" fill="black"/>
<path opacity="0.5" d="M508.074 25.0192L508.074 27.0254L506.01 27.0254L506.01 25.0192L508.074 25.0192Z" fill="black"/>
<path opacity="0.5" d="M540.027 22.2184L540.027 24.2246L537.963 24.2246L537.963 22.2184L540.027 22.2184Z" fill="black"/>
<path opacity="0.5" d="M543.465 52.1729L546.988 52.1729L546.988 51.0186L543.988 51.0186C543.989 50.9499 543.99 50.9515 543.988 50.7713C539.872 47.7233 537.564 46.0419 533.447 42.994L533.447 23.3446L543.741 15.5398L542.53 15.8696L532.704 22.9873L532.704 43.5436L542.557 50.6064L543.988 50.7713L542.364 50.6064C527.108 49.7636 496.187 47.9736 494.448 48.1056C492.708 48.2375 492.53 47.4643 492.659 47.0613C492.613 38.7526 492.565 21.6627 492.741 19.772C492.917 17.8812 493.439 18.0498 493.677 18.3704L541.511 16.1444L543.741 15.4848L544.374 15.3474L544.429 50.9087L545.144 50.9087L545.144 15.21L546.988 15.21L546.988 14.1657C546.53 14.2115 545.491 14.2756 545.007 14.1657C544.522 14.0558 542.475 14.8161 541.511 15.21C526.548 16.0253 496.187 17.6119 494.448 17.436C492.708 17.2601 492.09 18.7185 491.998 19.4697L491.998 47.2536C491.998 48.6607 492.861 48.8659 493.292 48.7926L542.007 51.3209L543.465 52.1729Z" fill="#636363"/>
<path opacity="0.5" d="M493.293 17.6548C492.871 17.7373 492.027 18.1385 492.027 19.0839C492.027 20.0293 492.027 38.1837 492.027 47.1427C491.99 47.7198 492.192 48.874 493.293 48.874" stroke="black" stroke-opacity="0.5"/>
<path opacity="0.6" d="M539.367 50.1934L531.798 43.955C531.587 43.8176 531.143 43.224 531.055 41.9489C530.967 40.6737 531.019 29.3989 531.055 23.9209C531.101 23.5819 531.391 22.7447 532.184 22.1071C532.976 21.4695 537.138 17.9207 539.119 16.226M536.23 50.1934C534.184 48.2788 530.048 44.3837 529.872 44.1199C529.652 43.7901 528.991 43.7352 528.964 41.9489C528.942 40.5198 528.954 29.5913 528.964 24.3056C528.964 23.8384 529.382 22.5193 531.055 20.9803C532.729 19.4414 535.055 17.3345 536.009 16.4733M533.009 49.9185L527.01 43.3504L527.01 23.7835L527.01 23.014L533.009 16.4733" stroke="#636363"/>
<path opacity="0.6" d="M529.983 49.7783L524.974 43.2377L524.974 23.4509L529.983 16.6904M526.735 49.7783L522.992 43.6224L522.992 23.4509L526.735 16.9377M523.735 49.4211L520.735 43.2377L520.57 23.286L523.735 16.9377M520.735 49.4211L518.699 43.2377L518.699 23.286L520.57 16.9377M517.57 49.1462L516.579 43.2377L516.579 22.5715L517.57 17.2675M514.488 48.9264L514.488 43.0178L514.488 22.3241L514.488 17.4599M511.653 48.9264L512.534 43.0178L512.423 23.1211L511.405 17.6797M508.35 48.9264L510.332 43.2377L510.332 23.286L508.35 17.6797M505.213 48.6241L508.35 43.6224L508.35 23.286L505.213 17.9545M502.158 48.6241C502.378 48.2943 504.983 44.7492 506.258 43.0178L506.258 23.286L502.158 17.9545M499.158 48.1844L504.112 43.0178L504.112 23.286L499.158 17.9545M496.047 48.1844C496.202 47.9206 500.185 44.6301 502.158 43.0178L502.158 23.1211L496.047 18.2294M544.625 48.2943L543.111 47.4412M543.111 47.4412L533.396 41.4789L500.176 41.4789L492.607 45.6561M543.111 47.4412L543.111 44.0072M543.111 44.0072L533.396 39.72L499.791 39.72L492.607 42.6331M543.111 44.0072L543.111 41.0391M543.111 18.9988L544.625 18.0645M543.111 18.9988L543.111 22.2142M543.111 18.9988L533.396 24.7425L499.791 24.7425L492.607 21.0874M543.111 22.2142L543.111 25.4296M543.111 22.2142L533.533 26.5563L499.791 26.5563L492.607 23.4509M543.111 41.0391L533.396 37.9062L499.791 37.9062L492.607 40.0498M543.111 41.0391L543.111 37.9062M543.111 37.9062L533.396 35.955L499.791 35.955L492.607 37.2742M543.111 37.9062L543.111 34.6359M543.111 34.6359L533.396 34.1138L499.791 34.1138L492.607 34.6359M543.111 34.6359L543.111 31.7229M543.111 31.7229L533.396 32.1076L499.791 32.1076L492.607 31.7229M543.111 31.7229L543.111 28.3151M543.111 28.3151L533.396 30.2938L499.791 30.2938L492.607 28.9472M543.111 28.3151L543.111 25.4296M543.111 25.4296L533.396 28.3151L499.791 28.3151L492.607 26.254M539.203 47.8546L495.58 46.1507L495.58 20.1531L539.203 18.5591M534.854 44.7492L498.772 44.0072L498.772 22.2142L534.854 21.5821" stroke="#636363" stroke-width="0.5"/>
<path d="M546.907 52.4746L546.907 50.6608L549.054 50.6608L549.054 15.8415L546.66 15.8415L546.66 14.0003L551.559 14.0003L551.559 15.8415L550.705 15.8415L550.705 50.6608L551.283 50.6608L551.283 52.4746L546.907 52.4746Z" fill="#FF5B52"/>
<rect width="5.44651" height="12.4492" rx="2.72325" transform="matrix(-1.69245e-07 1 1 1.39661e-07 549.438 18.7812)" fill="#F1CD70"/>
<rect width="5.44651" height="12.4492" rx="2.72325" transform="matrix(-0.0654782 0.997854 0.997854 0.0654782 542.355 40.6152)" fill="#F1CD70"/>
<path d="M556.441 18.7812L556.441 24.2278L563.055 24.2278C564.559 24.2278 565.778 23.0085 565.778 21.5045C565.778 20.0005 564.559 18.7813 563.055 18.7813L556.441 18.7812Z" fill="#276725"/>
<path d="M549.34 41.0684L548.983 46.5032L561.052 47.2951C562.553 47.3936 563.849 46.2568 563.948 44.756C564.046 43.2553 562.91 41.9588 561.409 41.8603L549.34 41.0684Z" fill="#276725"/>
<path d="M564.27 18.7842C562.06 18.7842 560.27 20.575 560.27 22.7842L560.27 44.5688C560.27 46.7779 562.06 48.5688 564.27 48.5688L568.003 48.5688C570.212 48.5688 572.003 46.7779 572.003 44.5688L572.003 22.7842C572.003 20.575 570.212 18.7842 568.003 18.7842L564.27 18.7842Z" fill="#42934A"/>
<ellipse rx="6.84518" ry="7.33413" transform="matrix(-1.54453e-07 1 1 1.54453e-07 562.787 35.1108)" fill="#F1CD70"/>
<path d="M569.302 39.6272C569.302 40.2794 567.099 42.526 564.981 43.1602L561.422 43.1602L558.371 41.5295L557.863 40.7142L558.879 38.8118L557.863 37.1812L559.388 35.5506L559.896 34.1918L559.388 31.7459L557.863 29.8435L558.879 27.1258L563.964 26.3105C565.489 27.1258 567.98 27.2345 568.794 27.6693C569.607 28.1041 568.794 30.387 570.827 29.8435C570.573 30.84 570.217 33.1047 570.827 34.1918C571.59 35.5506 570.573 36.0942 570.065 37.1812C569.556 38.2683 569.302 38.8118 569.302 39.6272Z" fill="#303030"/>
<path d="M562.073 41.9572C566.394 41.9572 569.896 38.7242 569.896 34.7359C569.896 30.7477 566.394 27.5146 562.073 27.5146C557.753 27.5146 554.25 29.32 554.25 34.7359C554.25 38.7242 557.753 41.9572 562.073 41.9572Z" fill="#42934A"/>
<path d="M562.074 35.9428C561.742 35.9428 561.472 35.6734 561.472 35.341C561.472 35.0087 561.742 34.7393 562.074 34.7393C562.406 34.7393 562.676 34.8897 562.676 35.341C562.676 35.6734 562.406 35.9428 562.074 35.9428Z" fill="#276725"/>
<path d="M557.862 40.7609C552.566 37.3666 554.252 29.3309 558.464 28.1187C555.656 27.3105 549.438 27.2268 549.437 34.5005C549.437 41.7741 555.054 41.3671 557.862 40.7609Z" fill="#276725"/>
</g>
</g>
<defs>
<clipPath id="clip0_112_732">
<rect width="574" height="69" fill="white"/>
</clipPath>
<clipPath id="clip1_112_732">
<rect width="82" height="69" fill="white" transform="translate(82)"/>
</clipPath>
<clipPath id="clip2_112_732">
<rect width="82" height="69" fill="white" transform="translate(328)"/>
</clipPath>
<clipPath id="clip3_112_732">
<rect width="82" height="69" fill="white" transform="translate(164)"/>
</clipPath>
<clipPath id="clip4_112_732">
<rect width="82" height="69" fill="white" transform="translate(410)"/>
</clipPath>
<clipPath id="clip5_112_732">
<rect width="82" height="69" fill="white" transform="translate(246)"/>
</clipPath>
<clipPath id="clip6_112_732">
<rect width="82" height="69" fill="white" transform="translate(492)"/>
</clipPath>
</defs>
</svg>
