<svg width="39" height="70" viewBox="0 0 39 70" fill="none" xmlns="http://www.w3.org/2000/svg">
<g clip-path="url(#clip0_151_5521)">
<path d="M16.1722 11.2442H19.5227C22.7992 11.5983 24.1141 10.5023 24.3622 9.91008V5.90815C25.1067 5.76 26.5959 4.84116 26.5959 2.3511C26.5959 -0.138954 25.3549 -0.168598 24.7345 0.127838L14.3104 0.127838C13.8142 -0.0203801 12.7471 0.216768 12.4493 2.3511C12.1515 4.48544 13.8144 5.31546 14.683 5.46368V9.02095C14.683 10.4438 15.6758 11.096 16.1722 11.2442Z" fill="#DA5729"/>
<path d="M8.49325 67.8775H19.3454H31.5977C34.3983 67.8775 35.0984 64.9628 35.0984 63.5054V32.2285C35.0984 29.8744 33.3481 25.8392 29.4973 23.485C26.4167 21.6016 26.1133 17.655 25.9966 15.7493V10.0325C25.9966 10.0325 28.4033 10.0325 28.097 7.00514C27.9448 5.50014 25.6028 5.6602 25.6028 5.6602L13.7442 5.65989C13.7442 5.65989 11.6437 5.66003 11.6437 7.34159C11.6437 10.0313 13.3925 10.0319 13.7437 10.0321L13.7442 15.413C13.7442 18.7761 13.7443 18.4397 8.49325 23.8207C4.2924 28.1255 3.70895 31.2196 3.94233 32.2285L3.94233 62.8328C3.94233 66.0614 6.97627 67.5412 8.49325 67.8775Z" stroke="#CDCDCD"/>
<path d="M19.4984 20.4525C16.7251 19.2669 14.4035 19.958 13.8257 20.4521L9.09844 24.439L3.89844 30.8266L3.89844 61.9503C3.89844 65.5073 7.3651 67.3846 9.09844 67.8787H22.9651H33.3651C34.7518 67.8787 35.0984 63.9264 35.0984 61.9503V36.7549C35.0984 32.3087 33.9954 29.8327 32.2621 26.8686C30.8754 24.4972 26.4318 21.9341 24.6984 20.4521C24.1207 20.9462 22.2718 21.6382 19.4984 20.4525Z" fill="white"/>
<path d="M35.0984 36.7656C24.5639 41.7402 9.78949 39.5293 3.89844 36.7656L3.89844 51.9658C4.70701 53.0022 7.01723 55.213 9.78949 55.7658C13.2548 56.4567 26.0765 57.1476 29.5418 55.7658C32.3141 54.6603 34.5209 53.0433 35.0984 52.4675V36.7656Z" fill="#0E5B93"/>
<path d="M9.56641 50.6852V45.4953C9.56641 45.4256 9.61441 45.3693 9.71043 45.3263C9.81284 45.278 9.92489 45.2539 10.0465 45.2539C10.1809 45.2539 10.2705 45.2861 10.3153 45.3505L12.5813 48.1586L14.8568 45.3505C14.9016 45.2861 14.9817 45.2539 15.0969 45.2539C15.2121 45.2539 15.3241 45.278 15.4329 45.3263C15.5418 45.3746 15.5962 45.4309 15.5962 45.4953V50.6852C15.5962 50.7549 15.561 50.8112 15.4905 50.8541C15.4201 50.8917 15.3369 50.9105 15.2409 50.9105C15.0041 50.9105 14.8856 50.8354 14.8856 50.6852V46.3643L13.1382 48.4885C12.9845 48.6763 12.7957 48.7702 12.5717 48.7702C12.3668 48.7702 12.1844 48.6763 12.0244 48.4885L10.2769 46.3643V50.6852C10.2769 50.7549 10.2417 50.8112 10.1713 50.8541C10.1009 50.8917 10.0177 50.9105 9.92166 50.9105C9.68483 50.9105 9.56641 50.8354 9.56641 50.6852ZM17.0019 50.6852V45.4953C17.0019 45.3505 17.1235 45.278 17.3668 45.278C17.4628 45.278 17.5429 45.2968 17.6068 45.3344C17.6773 45.3719 17.7125 45.4256 17.7125 45.4953V50.6852C17.7125 50.7549 17.6773 50.8112 17.6068 50.8541C17.5364 50.8917 17.4532 50.9105 17.3572 50.9105C17.1204 50.9105 17.0019 50.8354 17.0019 50.6852ZM19.1117 50.6852V45.4953C19.1117 45.3505 19.2333 45.278 19.4765 45.278C19.5725 45.278 19.6525 45.2968 19.7166 45.3344C19.7869 45.3719 19.8222 45.4256 19.8222 45.4953V50.3231H22.9715C23.0547 50.3231 23.1187 50.3526 23.1635 50.4116C23.2147 50.4706 23.2403 50.5403 23.2403 50.6208C23.2403 50.8139 23.1507 50.9105 22.9715 50.9105H19.6686C19.2973 50.9105 19.1117 50.8354 19.1117 50.6852ZM24.0249 50.6852V45.4953C24.0249 45.3505 24.1466 45.278 24.3898 45.278C24.4858 45.278 24.5658 45.2968 24.6298 45.3344C24.7002 45.3719 24.7354 45.4256 24.7354 45.4953V48.1586L28.192 45.3505C28.2496 45.3022 28.3136 45.278 28.384 45.278C28.48 45.278 28.5696 45.3156 28.6528 45.3907C28.7425 45.4604 28.7873 45.5355 28.7873 45.616C28.7873 45.6696 28.7649 45.7153 28.72 45.7528L26.214 47.7805L29.3825 50.5001C29.4082 50.5215 29.421 50.5591 29.421 50.6128C29.421 50.6879 29.3729 50.7576 29.2769 50.822C29.1809 50.881 29.0817 50.9105 28.9793 50.9105C28.9153 50.9105 28.8449 50.8783 28.768 50.8139L25.686 48.2069L24.7354 48.9794V50.6852C24.7354 50.7549 24.7002 50.8112 24.6298 50.8541C24.5594 50.8917 24.4762 50.9105 24.3802 50.9105C24.1433 50.9105 24.0249 50.8354 24.0249 50.6852Z" fill="white"/>
</g>
<defs>
<clipPath id="clip0_151_5521">
<rect width="39" height="70" fill="white"/>
</clipPath>
</defs>
</svg>
