<svg width="32" height="80" viewBox="0 0 32 80" fill="none" xmlns="http://www.w3.org/2000/svg">
<path d="M0.0703125 56.1018V48.6836H1.91484V54.5491H29.415V48.6836H31.0918V56.1018H0.0703125Z" fill="#AFAFAF"/>
<rect x="31.0938" y="48.6836" width="31.0215" height="47.8811" transform="rotate(-180 31.0938 48.6836)" fill="#AFAFAF"/>
<rect x="28.7344" y="45.3115" width="26.6381" height="41.1373" transform="rotate(-180 28.7344 45.3115)" fill="#828282"/>
<rect x="3.875" y="69.8818" width="24.6524" height="9.1566" rx="4.5783" fill="#868686"/>
<circle cx="16.5567" cy="71.2901" r="5.63483" fill="#F1CD70"/>
<circle cx="16.5567" cy="73.4034" r="5.63483" fill="#505050"/>
<rect x="1.76172" y="55.0898" width="6.33918" height="11.2697" rx="3.16959" fill="#F1CD70"/>
<path d="M1.76172 63.542H8.1009V66.7116C8.1009 68.4621 6.68183 69.8812 4.93131 69.8812V69.8812C3.18079 69.8812 1.76172 68.4621 1.76172 66.7116V63.542Z" fill="#868686"/>
<rect x="24.3008" y="55.0898" width="6.33918" height="11.2697" rx="3.16959" fill="#F1CD70"/>
<path d="M24.3008 63.542H30.64V66.7116C30.64 68.4621 29.2209 69.8812 27.4704 69.8812V69.8812C25.7199 69.8812 24.3008 68.4621 24.3008 66.7116V63.542Z" fill="#868686"/>
</svg>
