<svg width="73" height="244" viewBox="0 0 73 244" fill="none" xmlns="http://www.w3.org/2000/svg">
<g clip-path="url(#clip0_28_2)">
<rect width="73" height="244" fill="white"/>
<rect x="14.9805" width="57.6324" height="243.521" fill="#D0D0D0"/>
<rect x="28.8867" y="11.5742" width="6.71303" height="41.301" transform="rotate(-90 28.8867 11.5742)" fill="#BFDA79"/>
<rect x="28.8867" y="89.7383" width="6.71303" height="41.301" transform="rotate(-90 28.8867 89.7383)" fill="#BFDA79"/>
<rect x="28.8867" y="170.604" width="6.71303" height="41.301" transform="rotate(-90 28.8867 170.604)" fill="#79DAD4"/>
<rect x="28.8867" y="28.627" width="4.16671" height="41.301" transform="rotate(-90 28.8867 28.627)" fill="#7B79DA"/>
<rect x="28.8867" y="106.791" width="4.16671" height="41.301" transform="rotate(-90 28.8867 106.791)" fill="#00C2B7"/>
<rect x="28.8867" y="187.656" width="4.16671" height="41.301" transform="rotate(-90 28.8867 187.656)" fill="#42FF00"/>
<rect x="28.8867" y="19.9082" width="6.71303" height="41.301" transform="rotate(-90 28.8867 19.9082)" fill="#BFDA79"/>
<rect x="28.8867" y="98.0723" width="6.71303" height="41.301" transform="rotate(-90 28.8867 98.0723)" fill="#BFDA79"/>
<rect x="28.8867" y="178.938" width="6.71303" height="41.301" transform="rotate(-90 28.8867 178.938)" fill="#79DAD4"/>
<rect x="28.8867" y="34.2598" width="4.01239" height="41.301" transform="rotate(-90 28.8867 34.2598)" fill="#7B79DA"/>
<rect x="28.8867" y="112.424" width="4.01239" height="41.301" transform="rotate(-90 28.8867 112.424)" fill="#00C2B7"/>
<rect x="28.8867" y="193.289" width="4.01239" height="41.301" transform="rotate(-90 28.8867 193.289)" fill="#42FF00"/>
<rect x="28.8867" y="39.8926" width="4.01239" height="41.301" transform="rotate(-90 28.8867 39.8926)" fill="#7B79DA"/>
<rect x="28.8867" y="118.057" width="4.01239" height="41.301" transform="rotate(-90 28.8867 118.057)" fill="#00C2B7"/>
<rect x="28.8867" y="198.922" width="4.01239" height="41.301" transform="rotate(-90 28.8867 198.922)" fill="#42FF00"/>
<rect x="28.8867" y="53.0869" width="8.64207" height="41.301" transform="rotate(-90 28.8867 53.0869)" fill="#E8C300"/>
<rect x="28.8867" y="131.252" width="8.64207" height="41.301" transform="rotate(-90 28.8867 131.252)" fill="#E80000"/>
<rect x="28.8867" y="212.116" width="8.64207" height="41.301" transform="rotate(-90 28.8867 212.116)" fill="black"/>
<rect x="28.8867" y="72.377" width="4.47535" height="41.301" transform="rotate(-90 28.8867 72.377)" fill="#16B00D"/>
<rect x="28.8867" y="150.542" width="4.47535" height="41.301" transform="rotate(-90 28.8867 150.542)" fill="#510674"/>
<rect x="28.8867" y="231.407" width="4.47535" height="41.301" transform="rotate(-90 28.8867 231.407)" fill="#BF9500"/>
<rect x="28.8867" y="78.4736" width="4.47535" height="41.301" transform="rotate(-90 28.8867 78.4736)" fill="#0E370C"/>
<rect x="28.8867" y="156.638" width="4.47535" height="41.301" transform="rotate(-90 28.8867 156.638)" fill="#510674"/>
<rect x="28.8867" y="237.503" width="4.47535" height="41.301" transform="rotate(-90 28.8867 237.503)" fill="#BF9500"/>
<rect x="28.8867" y="63.3496" width="8.64207" height="41.301" transform="rotate(-90 28.8867 63.3496)" fill="#E8C300"/>
<rect x="28.8867" y="141.514" width="8.64207" height="41.301" transform="rotate(-90 28.8867 141.514)" fill="#E80000"/>
<rect x="28.8867" y="222.379" width="8.64207" height="41.301" transform="rotate(-90 28.8867 222.379)" fill="black"/>
<rect x="9.58594" width="57.6324" height="243.521" fill="#E0E0E0"/>
<rect x="19.1719" y="11.5742" width="6.71303" height="41.301" transform="rotate(-90 19.1719 11.5742)" fill="#BFDA79"/>
<rect x="19.1719" y="89.7383" width="6.71303" height="41.301" transform="rotate(-90 19.1719 89.7383)" fill="#BFDA79"/>
<rect x="19.1719" y="170.604" width="6.71303" height="41.301" transform="rotate(-90 19.1719 170.604)" fill="#79DAD4"/>
<rect x="19.1719" y="51.1582" width="4.16671" height="41.301" transform="rotate(-90 19.1719 51.1582)" fill="#7B79DA"/>
<rect x="19.1719" y="28.7041" width="4.16671" height="41.301" transform="rotate(-90 19.1719 28.7041)" fill="#110E99"/>
<rect x="19.1719" y="106.791" width="4.16671" height="41.301" transform="rotate(-90 19.1719 106.791)" fill="#00C2B7"/>
<rect x="19.1719" y="187.656" width="4.16671" height="41.301" transform="rotate(-90 19.1719 187.656)" fill="#42FF00"/>
<rect x="19.1719" y="19.9072" width="6.71303" height="41.301" transform="rotate(-90 19.1719 19.9072)" fill="#BFDA79"/>
<rect x="19.1719" y="98.0723" width="6.71303" height="41.301" transform="rotate(-90 19.1719 98.0723)" fill="#BFDA79"/>
<rect x="19.1719" y="178.938" width="6.71303" height="41.301" transform="rotate(-90 19.1719 178.938)" fill="#79DAD4"/>
<rect x="19.1719" y="56.791" width="4.01239" height="41.301" transform="rotate(-90 19.1719 56.791)" fill="#7B79DA"/>
<rect x="19.1719" y="34.3369" width="4.01239" height="41.301" transform="rotate(-90 19.1719 34.3369)" fill="#110E99"/>
<rect x="19.1719" y="112.424" width="4.01239" height="41.301" transform="rotate(-90 19.1719 112.424)" fill="#00C2B7"/>
<rect x="19.1719" y="193.289" width="4.01239" height="41.301" transform="rotate(-90 19.1719 193.289)" fill="#42FF00"/>
<rect x="19.1719" y="62.4238" width="4.01239" height="41.301" transform="rotate(-90 19.1719 62.4238)" fill="#7B79DA"/>
<rect x="19.1719" y="39.9697" width="4.01239" height="41.301" transform="rotate(-90 19.1719 39.9697)" fill="#110E99"/>
<rect x="19.1719" y="118.057" width="4.01239" height="41.301" transform="rotate(-90 19.1719 118.057)" fill="#00C2B7"/>
<rect x="19.1719" y="198.922" width="4.01239" height="41.301" transform="rotate(-90 19.1719 198.922)" fill="#42FF00"/>
<rect x="19.1719" y="131.251" width="8.64207" height="41.301" transform="rotate(-90 19.1719 131.251)" fill="#E80000"/>
<rect x="19.1719" y="212.116" width="8.64207" height="41.301" transform="rotate(-90 19.1719 212.116)" fill="black"/>
<rect x="19.1719" y="72.377" width="4.47535" height="41.301" transform="rotate(-90 19.1719 72.377)" fill="#89CC85"/>
<rect x="19.1719" y="150.542" width="4.47535" height="41.301" transform="rotate(-90 19.1719 150.542)" fill="#510674"/>
<rect x="19.1719" y="231.407" width="4.47535" height="41.301" transform="rotate(-90 19.1719 231.407)" fill="#BF9500"/>
<rect x="19.1719" y="78.4727" width="4.47535" height="41.301" transform="rotate(-90 19.1719 78.4727)" fill="#89CC85"/>
<rect x="19.1719" y="156.638" width="4.47535" height="41.301" transform="rotate(-90 19.1719 156.638)" fill="#510674"/>
<rect x="19.1719" y="237.503" width="4.47535" height="41.301" transform="rotate(-90 19.1719 237.503)" fill="#BF9500"/>
<rect x="19.1719" y="141.514" width="8.64207" height="41.301" transform="rotate(-90 19.1719 141.514)" fill="#E80000"/>
<rect x="19.1719" y="222.379" width="8.64207" height="41.301" transform="rotate(-90 19.1719 222.379)" fill="black"/>
<rect width="57.6324" height="243.521" fill="#F5F5F5"/>
<rect x="7.96094" y="11.5742" width="6.71303" height="41.301" transform="rotate(-90 7.96094 11.5742)" fill="#BFDA79"/>
<rect x="7.96094" y="89.7393" width="6.71303" height="41.301" transform="rotate(-90 7.96094 89.7393)" fill="#BFDA79"/>
<rect x="7.96094" y="170.604" width="6.71303" height="41.301" transform="rotate(-90 7.96094 170.604)" fill="#79DAD4"/>
<rect x="7.96094" y="28.627" width="4.16671" height="41.301" transform="rotate(-90 7.96094 28.627)" fill="#7B79DA"/>
<rect x="7.96094" y="106.791" width="4.16671" height="41.301" transform="rotate(-90 7.96094 106.791)" fill="#00C2B7"/>
<rect x="7.96094" y="187.656" width="4.16671" height="41.301" transform="rotate(-90 7.96094 187.656)" fill="#42FF00"/>
<rect x="7.96094" y="19.9082" width="6.71303" height="41.301" transform="rotate(-90 7.96094 19.9082)" fill="#BFDA79"/>
<rect x="7.96094" y="98.0723" width="6.71303" height="41.301" transform="rotate(-90 7.96094 98.0723)" fill="#BFDA79"/>
<rect x="7.96094" y="178.938" width="6.71303" height="41.301" transform="rotate(-90 7.96094 178.938)" fill="#79DAD4"/>
<rect x="7.96094" y="34.2598" width="4.01239" height="41.301" transform="rotate(-90 7.96094 34.2598)" fill="#7B79DA"/>
<rect x="7.96094" y="112.425" width="4.01239" height="41.301" transform="rotate(-90 7.96094 112.425)" fill="#00C2B7"/>
<rect x="7.96094" y="193.289" width="4.01239" height="41.301" transform="rotate(-90 7.96094 193.289)" fill="#42FF00"/>
<rect x="7.96094" y="39.8926" width="4.01239" height="41.301" transform="rotate(-90 7.96094 39.8926)" fill="#7B79DA"/>
<rect x="7.96094" y="118.057" width="4.01239" height="41.301" transform="rotate(-90 7.96094 118.057)" fill="#00C2B7"/>
<rect x="7.96094" y="198.922" width="4.01239" height="41.301" transform="rotate(-90 7.96094 198.922)" fill="#42FF00"/>
<rect x="7.96094" y="53.0869" width="8.64207" height="41.301" transform="rotate(-90 7.96094 53.0869)" fill="#E8C300"/>
<rect x="7.96094" y="131.252" width="8.64207" height="41.301" transform="rotate(-90 7.96094 131.252)" fill="#E80000"/>
<rect x="7.96094" y="212.116" width="8.64207" height="41.301" transform="rotate(-90 7.96094 212.116)" fill="black"/>
<rect x="7.96094" y="72.3779" width="4.47535" height="41.301" transform="rotate(-90 7.96094 72.3779)" fill="#89CC85"/>
<rect x="7.96094" y="150.542" width="4.47535" height="41.301" transform="rotate(-90 7.96094 150.542)" fill="#510674"/>
<rect x="7.96094" y="231.407" width="4.47535" height="41.301" transform="rotate(-90 7.96094 231.407)" fill="#BF9500"/>
<rect x="7.96094" y="78.4736" width="4.47535" height="41.301" transform="rotate(-90 7.96094 78.4736)" fill="#89CC85"/>
<rect x="7.96094" y="156.638" width="4.47535" height="41.301" transform="rotate(-90 7.96094 156.638)" fill="#510674"/>
<rect x="7.96094" y="237.503" width="4.47535" height="41.301" transform="rotate(-90 7.96094 237.503)" fill="#BF9500"/>
<rect x="7.96094" y="63.3496" width="8.64207" height="41.301" transform="rotate(-90 7.96094 63.3496)" fill="#E8C300"/>
<rect x="7.96094" y="141.514" width="8.64207" height="41.301" transform="rotate(-90 7.96094 141.514)" fill="#E80000"/>
<rect x="7.96094" y="222.379" width="8.64207" height="41.301" transform="rotate(-90 7.96094 222.379)" fill="black"/>
<rect x="0.539062" width="43.3256" height="243.521" fill="#D6D6D6"/>
</g>
<defs>
<clipPath id="clip0_28_2">
<rect width="73" height="244" fill="white"/>
</clipPath>
</defs>
</svg>
