<svg width="71" height="155" viewBox="0 0 71 155" fill="none" xmlns="http://www.w3.org/2000/svg">
<g clip-path="url(#clip0_28_95)">
<rect width="71" height="155" fill="white"/>
<rect x="55.6758" y="154.562" width="55.6754" height="154.562" transform="rotate(180 55.6758 154.562)" fill="#609CA5"/>
<rect x="42.2383" y="147.217" width="4.26074" height="39.8985" transform="rotate(90 42.2383 147.217)" fill="#BFDA79"/>
<rect x="42.2383" y="97.6055" width="4.26074" height="39.8985" transform="rotate(90 42.2383 97.6055)" fill="#BFDA79"/>
<rect x="42.2383" y="46.2803" width="4.26074" height="39.8985" transform="rotate(90 42.2383 46.2803)" fill="#79DAD4"/>
<rect x="42.2383" y="136.393" width="2.64459" height="39.8985" transform="rotate(90 42.2383 136.393)" fill="#7B79DA"/>
<rect x="42.2383" y="86.7822" width="2.64459" height="39.8985" transform="rotate(90 42.2383 86.7822)" fill="#00C2B7"/>
<rect x="42.2383" y="35.457" width="2.64459" height="39.8985" transform="rotate(90 42.2383 35.457)" fill="#42FF00"/>
<rect x="42.2383" y="141.926" width="4.26074" height="39.8985" transform="rotate(90 42.2383 141.926)" fill="#BFDA79"/>
<rect x="42.2383" y="92.3164" width="4.26074" height="39.8985" transform="rotate(90 42.2383 92.3164)" fill="#BFDA79"/>
<rect x="42.2383" y="40.9912" width="4.26074" height="39.8985" transform="rotate(90 42.2383 40.9912)" fill="#79DAD4"/>
<rect x="42.2383" y="132.818" width="2.54665" height="39.8985" transform="rotate(90 42.2383 132.818)" fill="#7B79DA"/>
<rect x="42.2383" y="83.207" width="2.54665" height="39.8985" transform="rotate(90 42.2383 83.207)" fill="#00C2B7"/>
<rect x="42.2383" y="31.8818" width="2.54665" height="39.8985" transform="rotate(90 42.2383 31.8818)" fill="#42FF00"/>
<rect x="42.2383" y="129.242" width="2.54665" height="39.8985" transform="rotate(90 42.2383 129.242)" fill="#7B79DA"/>
<rect x="42.2383" y="79.6318" width="2.54665" height="39.8985" transform="rotate(90 42.2383 79.6318)" fill="#00C2B7"/>
<rect x="42.2383" y="28.3076" width="2.54665" height="39.8985" transform="rotate(90 42.2383 28.3076)" fill="#42FF00"/>
<rect x="42.2383" y="120.867" width="5.48509" height="39.8985" transform="rotate(90 42.2383 120.867)" fill="#E8C300"/>
<rect x="42.2383" y="71.2568" width="5.48509" height="39.8985" transform="rotate(90 42.2383 71.2568)" fill="#E80000"/>
<rect x="42.2383" y="19.9326" width="5.48509" height="39.8985" transform="rotate(90 42.2383 19.9326)" fill="black"/>
<rect x="42.2383" y="108.624" width="2.84049" height="39.8985" transform="rotate(90 42.2383 108.624)" fill="#16B00D"/>
<rect x="42.2383" y="59.0137" width="2.84049" height="39.8985" transform="rotate(90 42.2383 59.0137)" fill="#510674"/>
<rect x="42.2383" y="7.68945" width="2.84049" height="39.8985" transform="rotate(90 42.2383 7.68945)" fill="#BF9500"/>
<rect x="42.2383" y="104.756" width="2.84049" height="39.8985" transform="rotate(90 42.2383 104.756)" fill="#0E370C"/>
<rect x="42.2383" y="55.1445" width="2.84049" height="39.8985" transform="rotate(90 42.2383 55.1445)" fill="#510674"/>
<rect x="42.2383" y="3.82031" width="2.84049" height="39.8985" transform="rotate(90 42.2383 3.82031)" fill="#BF9500"/>
<rect x="42.2383" y="114.354" width="5.48509" height="39.8985" transform="rotate(90 42.2383 114.354)" fill="#E8C300"/>
<rect x="42.2383" y="64.7441" width="5.48509" height="39.8985" transform="rotate(90 42.2383 64.7441)" fill="#E80000"/>
<rect x="42.2383" y="13.4189" width="5.48509" height="39.8985" transform="rotate(90 42.2383 13.4189)" fill="black"/>
<rect x="60.8945" y="154.562" width="55.6754" height="154.562" transform="rotate(180 60.8945 154.562)" fill="#8AC8D0"/>
<rect x="51.6367" y="147.217" width="4.26074" height="39.8985" transform="rotate(90 51.6367 147.217)" fill="#BFDA79"/>
<rect x="51.6367" y="97.6055" width="4.26074" height="39.8985" transform="rotate(90 51.6367 97.6055)" fill="#BFDA79"/>
<rect x="51.6367" y="46.2812" width="4.26074" height="39.8985" transform="rotate(90 51.6367 46.2812)" fill="#79DAD4"/>
<rect x="51.6367" y="122.092" width="2.64459" height="39.8985" transform="rotate(90 51.6367 122.092)" fill="#7B79DA"/>
<rect x="51.6367" y="136.344" width="2.64459" height="39.8985" transform="rotate(90 51.6367 136.344)" fill="#110E99"/>
<rect x="51.6367" y="86.7822" width="2.64459" height="39.8985" transform="rotate(90 51.6367 86.7822)" fill="#00C2B7"/>
<rect x="51.6367" y="35.458" width="2.64459" height="39.8985" transform="rotate(90 51.6367 35.458)" fill="#42FF00"/>
<rect x="51.6367" y="141.928" width="4.26074" height="39.8985" transform="rotate(90 51.6367 141.928)" fill="#BFDA79"/>
<rect x="51.6367" y="92.3164" width="4.26074" height="39.8985" transform="rotate(90 51.6367 92.3164)" fill="#BFDA79"/>
<rect x="51.6367" y="40.9922" width="4.26074" height="39.8985" transform="rotate(90 51.6367 40.9922)" fill="#79DAD4"/>
<rect x="51.6367" y="118.518" width="2.54665" height="39.8985" transform="rotate(90 51.6367 118.518)" fill="#7B79DA"/>
<rect x="51.6367" y="132.77" width="2.54665" height="39.8985" transform="rotate(90 51.6367 132.77)" fill="#110E99"/>
<rect x="51.6367" y="83.207" width="2.54665" height="39.8985" transform="rotate(90 51.6367 83.207)" fill="#00C2B7"/>
<rect x="51.6367" y="31.8828" width="2.54665" height="39.8985" transform="rotate(90 51.6367 31.8828)" fill="#42FF00"/>
<rect x="51.6367" y="114.943" width="2.54665" height="39.8985" transform="rotate(90 51.6367 114.943)" fill="#7B79DA"/>
<rect x="51.6367" y="129.193" width="2.54665" height="39.8985" transform="rotate(90 51.6367 129.193)" fill="#110E99"/>
<rect x="51.6367" y="79.6318" width="2.54665" height="39.8985" transform="rotate(90 51.6367 79.6318)" fill="#00C2B7"/>
<rect x="51.6367" y="28.3076" width="2.54665" height="39.8985" transform="rotate(90 51.6367 28.3076)" fill="#42FF00"/>
<rect x="51.6367" y="71.2578" width="5.48509" height="39.8985" transform="rotate(90 51.6367 71.2578)" fill="#E80000"/>
<rect x="51.6367" y="19.9326" width="5.48509" height="39.8985" transform="rotate(90 51.6367 19.9326)" fill="black"/>
<rect x="51.6367" y="108.625" width="2.84049" height="39.8985" transform="rotate(90 51.6367 108.625)" fill="#89CC85"/>
<rect x="51.6367" y="59.0146" width="2.84049" height="39.8985" transform="rotate(90 51.6367 59.0146)" fill="#510674"/>
<rect x="51.6367" y="7.68945" width="2.84049" height="39.8985" transform="rotate(90 51.6367 7.68945)" fill="#BF9500"/>
<rect x="51.6367" y="104.756" width="2.84049" height="39.8985" transform="rotate(90 51.6367 104.756)" fill="#89CC85"/>
<rect x="51.6367" y="55.1455" width="2.84049" height="39.8985" transform="rotate(90 51.6367 55.1455)" fill="#510674"/>
<rect x="51.6367" y="3.82031" width="2.84049" height="39.8985" transform="rotate(90 51.6367 3.82031)" fill="#BF9500"/>
<rect x="51.6367" y="64.7441" width="5.48509" height="39.8985" transform="rotate(90 51.6367 64.7441)" fill="#E80000"/>
<rect x="51.6367" y="13.4199" width="5.48509" height="39.8985" transform="rotate(90 51.6367 13.4199)" fill="black"/>
<rect x="70.1523" y="154.562" width="55.6754" height="154.562" transform="rotate(180 70.1523 154.562)" fill="#94DBE5"/>
<rect x="62.457" y="147.217" width="4.26074" height="39.8985" transform="rotate(90 62.457 147.217)" fill="#BFDA79"/>
<rect x="62.457" y="97.6055" width="4.26074" height="39.8985" transform="rotate(90 62.457 97.6055)" fill="#BFDA79"/>
<rect x="62.457" y="46.2803" width="4.26074" height="39.8985" transform="rotate(90 62.457 46.2803)" fill="#79DAD4"/>
<rect x="62.457" y="136.393" width="2.64459" height="39.8985" transform="rotate(90 62.457 136.393)" fill="#7B79DA"/>
<rect x="62.457" y="86.7822" width="2.64459" height="39.8985" transform="rotate(90 62.457 86.7822)" fill="#00C2B7"/>
<rect x="62.457" y="35.457" width="2.64459" height="39.8985" transform="rotate(90 62.457 35.457)" fill="#42FF00"/>
<rect x="62.457" y="141.926" width="4.26074" height="39.8985" transform="rotate(90 62.457 141.926)" fill="#BFDA79"/>
<rect x="62.457" y="92.3164" width="4.26074" height="39.8985" transform="rotate(90 62.457 92.3164)" fill="#BFDA79"/>
<rect x="62.457" y="40.9912" width="4.26074" height="39.8985" transform="rotate(90 62.457 40.9912)" fill="#79DAD4"/>
<rect x="62.457" y="132.818" width="2.54665" height="39.8985" transform="rotate(90 62.457 132.818)" fill="#7B79DA"/>
<rect x="62.457" y="83.207" width="2.54665" height="39.8985" transform="rotate(90 62.457 83.207)" fill="#00C2B7"/>
<rect x="62.457" y="31.8818" width="2.54665" height="39.8985" transform="rotate(90 62.457 31.8818)" fill="#42FF00"/>
<rect x="62.457" y="129.242" width="2.54665" height="39.8985" transform="rotate(90 62.457 129.242)" fill="#7B79DA"/>
<rect x="62.457" y="79.6318" width="2.54665" height="39.8985" transform="rotate(90 62.457 79.6318)" fill="#00C2B7"/>
<rect x="62.457" y="28.3076" width="2.54665" height="39.8985" transform="rotate(90 62.457 28.3076)" fill="#42FF00"/>
<rect x="62.457" y="120.867" width="5.48509" height="39.8985" transform="rotate(90 62.457 120.867)" fill="#E8C300"/>
<rect x="62.457" y="71.2568" width="5.48509" height="39.8985" transform="rotate(90 62.457 71.2568)" fill="#E80000"/>
<rect x="62.457" y="19.9326" width="5.48509" height="39.8985" transform="rotate(90 62.457 19.9326)" fill="black"/>
<rect x="62.457" y="108.624" width="2.84049" height="39.8985" transform="rotate(90 62.457 108.624)" fill="#89CC85"/>
<rect x="62.457" y="59.0137" width="2.84049" height="39.8985" transform="rotate(90 62.457 59.0137)" fill="#510674"/>
<rect x="62.457" y="7.68945" width="2.84049" height="39.8985" transform="rotate(90 62.457 7.68945)" fill="#BF9500"/>
<rect x="62.457" y="104.756" width="2.84049" height="39.8985" transform="rotate(90 62.457 104.756)" fill="#89CC85"/>
<rect x="62.457" y="55.1445" width="2.84049" height="39.8985" transform="rotate(90 62.457 55.1445)" fill="#510674"/>
<rect x="62.457" y="3.82031" width="2.84049" height="39.8985" transform="rotate(90 62.457 3.82031)" fill="#BF9500"/>
<rect x="62.457" y="114.354" width="5.48509" height="39.8985" transform="rotate(90 62.457 114.354)" fill="#E8C300"/>
<rect x="62.457" y="64.7441" width="5.48509" height="39.8985" transform="rotate(90 62.457 64.7441)" fill="#E80000"/>
<rect x="62.457" y="13.4189" width="5.48509" height="39.8985" transform="rotate(90 62.457 13.4189)" fill="black"/>
<rect x="69.6289" y="154.562" width="41.8543" height="154.562" transform="rotate(180 69.6289 154.562)" fill="#DDDDDD"/>
</g>
<defs>
<clipPath id="clip0_28_95">
<rect width="71" height="155" fill="white"/>
</clipPath>
</defs>
</svg>
